/* XPM */
static char *_581a7fc84f5441584bb46a347a71908XRYJHYNFUdATsK8T[] = {
/* columns rows colors chars-per-pixel */
"50 50 6 1 ",
"  c black",
". c #0A0401",
"X c #0C0501",
"o c #260F02",
"O c #321303",
"+ c #C84C0C",
/* pixels */
"+++++o++++++ +++++ +++++ +++++ ++++++O+++++ +++++ ",
"+++++o++++++ +++++ +++++ +++++ ++++++O+++++ +++++ ",
"                                                  ",
"++ ++++++++++++ +++++ +++++ ++++++++++++ +++++ +++",
"++ ++++++++++++ +++++ +++++ ++++++++++++ +++++ +++",
"oo oooooooooooo ooooo ooooo oooooooooooo ooooo ooo",
"+++++o++++++ +++++ +++++ +++++ ++++++O+++++ +++++ ",
"+++++o++++++ +++++ +++++ +++++ ++++++O+++++ +++++ ",
"+++++o++++++ +++++ +++++ +++++ ++++++O+++++ +++++ ",
"++ ++++++++++++ +++++ +++++ ++++++++++++ +++++ +++",
"++ ++++++++++++ +++++ +++++ ++++++++++++ +++++ +++",
"++ ++++++++++++ +++++ +++++ ++++++++++++ +++++ +++",
"                                                  ",
"+++++o++++++ +++++ +++++ +++++ ++++++O+++++ +++++ ",
"+++++o++++++ +++++ +++++ +++++ ++++++O+++++ +++++ ",
"                                                  ",
"++ ++++++++++++ +++++ +++++ ++++++++++++ +++++ +++",
"++ ++++++++++++ +++++ +++++ ++++++++++++ +++++ +++",
"                                                  ",
"+++++o++++++ +++++ +++++ +++++ ++++++O+++++ +++++ ",
"+++++o++++++ +++++ +++++ +++++ ++++++O+++++ +++++ ",
"                                                  ",
"++ ++++++++++++ +++++ +++++ ++++++++++++ +++++ +++",
"++ ++++++++++++ +++++ +++++ ++++++++++++ +++++ +++",
"                                                  ",
"+++++o++++++ +++++ +++++ +++++ ++++++O+++++ +++++ ",
"+++++o++++++ +++++ +++++ +++++ ++++++O+++++ +++++ ",
"                                                  ",
"++ ++++++++++++ +++++ +++++ ++++++++++++ +++++ +++",
"++ ++++++++++++ +++++ +++++ ++++++++++++ +++++ +++",
"                                                  ",
"+++++o++++++ +++++ +++++ +++++ ++++++O+++++ +++++ ",
"+++++o++++++ +++++ +++++ +++++ ++++++O+++++ +++++ ",
"+++++o++++++ +++++ +++++ +++++ ++++++O+++++ +++++ ",
"++ ++++++++++++ +++++ +++++ ++++++++++++ +++++ +++",
"++ ++++++++++++ +++++ +++++ ++++++++++++ +++++ +++",
"++ ++++++++++++ +++++ +++++ ++++++++++++ +++++ +++",
"OOOOO.OOOOOO OOOOO OOOOO OOOOO OOOOOOXOOOOO OOOOO ",
"+++++o++++++ +++++ +++++ +++++ ++++++O+++++ +++++ ",
"+++++o++++++ +++++ +++++ +++++ ++++++O+++++ +++++ ",
"                                                  ",
"++ ++++++++++++ +++++ +++++ ++++++++++++ +++++ +++",
"++ ++++++++++++ +++++ +++++ ++++++++++++ +++++ +++",
"                                                  ",
"+++++o++++++ +++++ +++++ +++++ ++++++O+++++ +++++ ",
"+++++o++++++ +++++ +++++ +++++ ++++++O+++++ +++++ ",
"                                                  ",
"++ ++++++++++++ +++++ +++++ ++++++++++++ +++++ +++",
"++ ++++++++++++ +++++ +++++ ++++++++++++ +++++ +++",
"                                                  "
};
