/* XPM */
static char *_1f52d0434fd46b9b82754fd7110dc16Hp3xzf3Z4vdOo0qI[] = {
/* columns rows colors chars-per-pixel */
"48 50 38 1 ",
"  c black",
". c #050000",
"X c #0A0000",
"o c #0B0000",
"O c #120000",
"+ c #140000",
"@ c #210602",
"# c #240602",
"$ c #290702",
"% c #622707",
"& c #6A2703",
"* c #6B2604",
"= c #652708",
"- c #7B300B",
"; c #7A300C",
": c #6A2E10",
"> c #713112",
", c #AD4714",
"< c #AB4817",
"1 c #AC4815",
"2 c #B74A11",
"3 c #B74F17",
"4 c #B84A11",
"5 c #BE4D12",
"6 c #BF4D12",
"7 c #B84E16",
"8 c #BC4E14",
"9 c #B54F19",
"0 c #C54B0B",
"q c #C74B0B",
"w c #C74C0B",
"e c #C64B0C",
"r c #C74B0C",
"t c #C34C0F",
"y c #C24D0F",
"u c gray93",
"i c #F6F6F6",
"p c #FEFEFE",
/* pixels */
"pupuupupupuppupupupuupupupuppupupupuupupupuppupu",
"upuppupupupuupupupuppupupupuupupupuppupupupuupup",
"pqqqqq qqqqw.qqqq6qqqqq qqqqq qqqqq4qqqqOqqqqq u",
"uqqqqq qqqqq.qqqq6qqqqq qqqqq qqqqq4qqqqOqqqqq p",
"uXXXXX XXXX. XXXXXXXXXX XXXXX XXXXX.XXXX XXXXX p",
"pqq qqqqw qqqqq,qqqqOqqqqq qqqqq.qqqq3qqqqq qqqu",
"urq qqqqq qqqqq,qqqqOqqqqq qqqqqXqqqq3qqqqq qqqp",
"p                                              u",
"uqqqqq qqqqq.qqqq6qqqqq qqqqq qqqqq4qqqqOqqqqq p",
"pwqqqq qqqqq.qqqq6qqqqq qqqqq qqqqq4qqqqOqqqqq u",
"u                                              p",
"pqq qqqqq qqqqq,qqqq+rqqqq qqqqqXqqqq7qqqqq qqqu",
"iqq qqqqq qqqqq,qqqq+qqqqq qqqqq.qqqq7qqqqq qqqi",
"u                                              p",
"pqqqqq qqqqqXqqqq6qqqqq qqqqq qqqqq4qqqqOqqqqq u",
"uqqqqq qqqqq.qqqq6qqqqq qqqqq qqqqq4qqqqOqqqqq p",
"p;; ;;;;- ;;;;;:;;;;X;;;;; ;;;;;.;;;;>;;;;; ;;;u",
"uqr rrrrq qqrqq,qqqqOrrrrr qrqqq.qqqr3qqrqq rrqp",
"pyt yyyry yttty<yyyyOywtty ytyytXyyyt9tttyy ryyu",
"uttrrr rrrrr.rrrr6rrrrr rrrrr rrrrr4rrrrOrrrqy p",
"pqqqqq qqqqq.qqqr6qqqqq qqqqq qqqqq4qqqqOqqqqq u",
"p##### #@### ####+##### @#### ##@##@####.@#### u",
"uqq qqqqq qqqqq,wwwq+qqqqq qqqqq.qqqq7qqqqq qqqp",
"pqq qqqqq qqqqq,wwrr+qqqqq qqqqqXqqqq7qqqqq qqqu",
"u                                              p",
"pqqqqq qqqqqXqqqq6qqqqq qqqqq qqqqq4wrqqOqqqqq u",
"uqqqqq qqqqq.qqqqyqqqqq qqqqw qqqqw4qqqqOqqqqq p",
"p                                              u",
"uqq qqqqq qqqqq,rqqq+qqqqq qqqqqXqqqq7qqqqq qqqp",
"uwq qqqqq qqqqq,rqqq+qqqqq qqqqq.qqqq7qqqqq qqqp",
"p                                              u",
"urqqqq qqqqq.qqqq6qqqqq qqqqq qqqqq4qqqqOqqqqq p",
"pwqqqq qqqqq.qqqw6qwqqq qwqqw qwqqq4qqqqOqqqqw u",
"u$$ $#$$$ $$$$$@$@$#.$$$$# $$@$# $$$$@$#$$$ #$$p",
"pqq qqqqq qqqqq,qqqq+qqqqq qqqqq.qqqq3qqqqq qqqu",
"uqy qywwt twwwt1wy0qOyqwtw tqwwwXwwtq3yqwyq wwtp",
"pttwyw ttwtt.ttwy6yqtry wtttw ttytr2yyryowtytw u",
"iqqqqq qqqqq.wqqtywqqqq qqqqq qqqqq4qqqqOqqwqq i",
"u&&*** *&&** *&&*=**&&* &&&** *&&&*%&***X***** p",
"pqq qqqqq qqqqq,qqqq+qqqqq qqqqwXqqqq7qqqqq qqqu",
"uqq qqqqq qqqqq,rqqq+qqqqq qqqqrXqqqq7qqqqq qqqp",
"p                                              u",
"uqqqqq qqqqq.qqqr6qqqqq qqqqq qqqqq4qqqqOqqqqq p",
"pqqqqq qqqqq.qqqryqqqqq qqqqq qqqqq4qqqqOqqqqq u",
"u                                              p",
"pqq qqqqq qqqqq,qqrw+qqqqq qqqqq.qqqq7qqqqq qqru",
"pqq qqqqq qqqqq,qqqqOqqqqq qqqqqXqqqq7qqqqq rwru",
"u                                              p",
"pupuupupupuppupupupuupupupuppupupupuupupupuppupu",
"upuppupupupuupupupuppupupupuupupupuppupupupuupup"
};
