/* XPM */
static char *b87a80ac58d143edded5ca27d03262bffCcQYG0mKlKRNyCd[] = {
/* columns rows colors chars-per-pixel */
"50 50 183 2 ",
"   c None",
".  c #020202",
"X  c #0A0504",
"o  c #0C0B07",
"O  c #0C0B0B",
"+  c #080808",
"@  c #120E0D",
"#  c #170805",
"$  c #0E100A",
"%  c #13100C",
"&  c #150F10",
"*  c #0C1010",
"=  c #141313",
"-  c #1C1415",
";  c #1B1C1C",
":  c #1D1915",
">  c #3B0A0B",
",  c #27140C",
"<  c #241B1C",
"1  c #291917",
"2  c #391A15",
"3  c #1F2018",
"4  c #28271E",
"5  c #291D20",
"6  c #1F2020",
"7  c #232221",
"8  c #2C2324",
"9  c #292929",
"0  c #322324",
"q  c #352628",
"w  c #36282A",
"e  c #3B2A2D",
"r  c #3E2220",
"t  c #383623",
"y  c #383837",
"u  c #51090B",
"i  c #620E13",
"p  c #751217",
"a  c #791418",
"s  c #512914",
"d  c #532D1F",
"f  c #5A301D",
"g  c #4C2613",
"h  c #61321E",
"j  c #743D1D",
"k  c #432E31",
"l  c #453234",
"z  c #4E393C",
"x  c #4E363A",
"c  c #523A3D",
"v  c #723E24",
"b  c #43422F",
"n  c #4A4B33",
"m  c #5D583D",
"M  c #754025",
"N  c #553E41",
"B  c #464646",
"V  c #5B4145",
"C  c #5B4448",
"Z  c #4F504F",
"A  c #615D41",
"S  c #6E4F54",
"D  c #664F52",
"F  c #6E5054",
"G  c #715156",
"H  c #78575C",
"J  c #616142",
"K  c #706D4A",
"L  c #7C7953",
"P  c #686666",
"I  c #7F6063",
"U  c #737373",
"Y  c #7B7A7B",
"T  c #8E181C",
"R  c #A2191E",
"E  c #A11B20",
"W  c #BD1E24",
"Q  c #CC1A23",
"!  c #F41C26",
"~  c #FB1C27",
"^  c #F51D29",
"/  c #FE1E29",
"(  c #F31526",
")  c #F13521",
"_  c #854824",
"`  c #9A5326",
"'  c #AE5E2A",
"]  c #A85726",
"[  c #B25E26",
"{  c #B25F29",
"}  c #AB4A3D",
"|  c #AD4E35",
" . c #B45434",
".. c #BB5C35",
"X. c #B25239",
"o. c #BC5D3D",
"O. c #B6612B",
"+. c #BE6429",
"@. c #AC6824",
"#. c #EF401E",
"$. c #F3541E",
"%. c #F3601D",
"&. c #F6711F",
"*. c #F04422",
"=. c #F05022",
"-. c #CF6F33",
";. c #C56637",
":. c #DC7E35",
">. c #D47539",
",. c #F66B27",
"<. c #9E4B43",
"1. c #A74743",
"2. c #A84643",
"3. c #AA4A43",
"4. c #825D64",
"5. c #876268",
"6. c #90696E",
"7. c #876470",
"8. c #956C74",
"9. c #9E7177",
"0. c #A3767C",
"q. c #A4787E",
"w. c #F88A18",
"e. c #FEA90F",
"r. c #FEA612",
"t. c #FEAA12",
"y. c #FC9D2C",
"u. c #F4952E",
"i. c #EB8C34",
"p. c #F59A34",
"a. c #F99832",
"s. c #FC8329",
"d. c #FEA026",
"f. c #FEA32A",
"g. c #FCA232",
"h. c #9A9667",
"j. c #A19D6C",
"k. c #A8A673",
"l. c #B1AE7A",
"z. c #B9B57D",
"x. c #EA9A41",
"c. c #AB7C82",
"v. c #9D9B9B",
"b. c #B9868E",
"n. c #B7878E",
"m. c #BD8992",
"M. c gray74",
"N. c #A4A4A3",
"B. c #C38C94",
"V. c #CB929B",
"C. c #D19AA2",
"Z. c #DA9EA7",
"A. c #D196A0",
"S. c #DEA1AA",
"D. c #E7A3AE",
"F. c #E9A3AE",
"G. c #EBA6B1",
"H. c #EDA9B4",
"J. c #E7A8B2",
"K. c #F1A7B3",
"L. c #F1ABB6",
"P. c #F3AEB9",
"I. c #FAAFBB",
"U. c #FBB3BF",
"Y. c #D2CE8C",
"T. c #DAD591",
"R. c #DED994",
"E. c #F0CD97",
"W. c #E3DE97",
"Q. c #F0EB9C",
"!. c #E6E19B",
"~. c #F5EFA1",
"^. c #F6F1A1",
"/. c #FAF4A3",
"(. c #FFFAA8",
"). c #FCB7C3",
"_. c #C5C4C4",
"`. c #CBCACA",
"'. c #D5D5D5",
"]. c #F7EEDE",
"[. c #E8E8E8",
"{. c #F3F3F3",
"}. c #FFFFFF",
/* pixels */
"                                                                                .                   ",
"                                                                              j +                   ",
"                                                                            j .                     ",
"                                                                          g @ +                     ",
"                                      + v.}.{..                         . j .                       ",
"                                  . [.}.}.}.}.}.        + {.}.{..     O ` .                         ",
"                                . }.}.}.}.}.}.}..   . }.}.}.}.}.}._.  _ .                           ",
"                              . }.}.}.}.}.}.}.}.O + }.}.}.}.}.}.}.}.. . +                           ",
"                            . }.}.}.}.}.}.}.}.}.= }.}.}.}.}.}.}.}.}.M.7                     @ . . . ",
"                    =       }.}.}.}.}.}.; }.}.= }.}.}.}.}.}.}.}.}.}.}.                + s +.. .     ",
"                ).H.      O }.}.}.}.}.U . }.}.}.}.. P }.}.}.}.}.}.}.}.            . O.[ , . +       ",
"                  - w 9 9 }.}.}.}.}.}.U }.}.B }.}._.}.}.}.}.}.}.}.}.}.N       + +.{ j . .           ",
"        O V m.    @   e . }.}.}.}.}.}.}.}.`.}.}.}.}.}.}.}.}.}.}.}.}.'.  +   _ { _ . .               ",
"          5.- C.*       }.}.}.}.}.}.}.}.}.+ }.}.}.}.}.}.}.}.}.}.}.}..   + { s . .                   ",
"                Z J.. 7 }.}.}.}.}.}.}.}.}.[.}.}.}.}.}.}.}.}.}.}.}.}.  o . . .                       ",
"        O   = 9 }.}.Y G }.}.}.}.}.}.}.}.'.}.}.}.}.}.}.}.}.}.}.}.}.; . . +                           ",
"      B.K.w $       N.U }.}.}.}.}.}.}.}.y }.}.}.}.}.}.}.}.}.}.}.}.. +                               ",
"        U.    . 8.Z.o `.}.}.}.}.}.}.}.}.. }.}.}.}.}.}.}.}.}.}.}.@ B     O O                         ",
"                    5 H.. }.}.}.}.}.}.}.. }.}.}.}.}.}.}.}.}.}.+ P..                                 ",
"          + r d , . z Z.I.. }.}.}.}.D S.= }.}.}.}.}.}.}.}.}.9 H.- e .                               ",
"        . @ . . # { [ [ O.1 . 1 l J.F.F.5.{.}.}.}.}.}.}.}.O L.F.w + O .                             ",
"    . 8.F.D.. . f ` f , # v O.O.X H.D.D.F.. }.}.'.= @ c N < N F.D.D.c .                             ",
"    C.G.D.F.P.. . . X v ] ' ' ] _ # F.D.F.c.- I.D.D.D.D.D.D.F.F.D.D.D.P.V .                         ",
"    . D.D.D.F.B.. . . . . . . . b.F.D.F.F.D.D.K.A.w . . . . C P.D.D.F.                              ",
"        = 4 z.Q.A . . . . < P.D.G.V.D.D.P.0 +   i (.Q.Q.@ ! ! ~ T Z.D.G.@ = *                       ",
"        t Q.Q.Q.        D.F.D.F.F.H.L.L.G Q.L   . Q.Q.Q.. ^ ) w.! ~ @ F.0.=                         ",
"        ~././.+       . z.J.G.D.F.F.F.P.h.h.~.  K Q.Q.(.Q ) r.w.=.r./ Z.D.P.q.V .                   ",
"                      h.Q.Q.: z 8.N .   ~.Q.~.  % ~.t W ! t.t.! $.t.^ X D.G.O           F.          ",
"                      W.W.. ; Q.Q.t     R.Q.(.      > ! ! t.t.! e.&.! . G.@       & H.n.7.F.        ",
"                      W.Y.  % Q.Q.o     l.Q..       R ! ! $.t.t.#.( ! + D.B.P.w + O     ).          ",
"        f...|         m Q.Q.Q.!.+                   ~ ! ^ ^ ! a.a.( ~ m.D.+                         ",
"      } 1.3.3.3.y.      ; y                   p.-.@.^ ^ ^ &.1.3.3.3.' G.F.l                         ",
"    i.1.3.3.3.3.3.f.          g.:.:.      f.3.3.3.1.f.! g.3.p.1.3.{ < D.G.  @ q.).F + H.            ",
"    ;.3.3.3.3.1.3.3.1.i.f.p.1.3.3.3.y.g.o.3.g.} ;.1.1.} a.1.3.;.| 2 G.G.F.{.. ; O     8.D.          ",
"    d.3.3.3.3.1.3.g.y. . .:.p.p.-.p.3.3.p.1.3.3.3.1. .3.X.s.a /.n S.D.c < < {.  .     +             ",
"      f.X.3.3.1.3.3.3.1.3.3.3.3.3.3.:.3.3.3.3.i.} 3.3.f.~ / / X G D.D.X   + 9 7                     ",
"            y.>.} 3.3.3.} o.u.x.2.3.3.3.3. .E.~ ,.;.*.j.^.Q./.l G.G.G.e     9.                      ",
"                              O Q.4 3.3.y.}.a # i ^ ^ b Q./.H D.D.D.  = @     4.+                   ",
"                      y       T.Q.Q./.].}.R k.Q.Q.L ~ p A J.F.D.D.D.b.      = q.N                   ",
"              +     + . ;     /.Q.Q.Q.b ~ u Q.Q.Q.Q.T = D.D.D.D.L.. A.0       7 4.                  ",
"  0 S           . P.F.D.D.<   /.Q.Q.Q.T.! > Q.Q.T.+ H.D.F.D.F.H.:       4.                          ",
"l H.D.S.m.6.D k 8 < < k D.D.X j.Q.Q.Q.A ! R . B.D.D.D.D.F.F.H.  O         -                         ",
"    +             0.x . H.D.F.H.S 4.0.V.H.D.D.D.F.F.H.H.  + L..                                     ",
"                      . F.H.F.D.D.F.F.F.D.D.F.H.w   G         =                                     ",
"                        8.  - = G.= . F.7 V       %   +                                             ",
"                      8       + ;     O           . .                                               ",
"                    +         .                     .                                               ",
"                                                      e q.+                                         ",
"                                                    . c.D.                                          ",
"                                                        q.                                          "
};
