/* XPM */
static char *_001d4be78924786bddc78cf6fe06aebXFm2vgk4k6goG0p3[] = {
/* columns rows colors chars-per-pixel */
"50 50 235 2 ",
"   c None",
".  c #120C09",
"X  c #19130E",
"o  c #1B1814",
"O  c #231B16",
"+  c #321B0F",
"@  c #2B231C",
"#  c #262319",
"$  c #36241A",
"%  c #343D1E",
"&  c #281E23",
"*  c #2B2523",
"=  c #2A2726",
"-  c #342B25",
";  c #3C2A22",
":  c #352C2B",
">  c #2B3222",
",  c #34332B",
"<  c #37372A",
"1  c #3B3633",
"2  c #3C3935",
"3  c #3C3B3C",
"4  c #383436",
"5  c #2F2F36",
"6  c #1E2113",
"7  c #452919",
"8  c #49372B",
"9  c #563924",
"0  c #433B34",
"q  c #423D3B",
"w  c #483635",
"e  c #4C342C",
"r  c #643B26",
"t  c #39432D",
"y  c #3D4335",
"u  c #5E431A",
"i  c #43492B",
"p  c #5B4329",
"a  c #454236",
"s  c #45423B",
"d  c #4B433D",
"f  c #494B3C",
"g  c #554639",
"h  c #485237",
"j  c #565B3A",
"k  c #4E592D",
"l  c #65442B",
"z  c #66442B",
"x  c #6A4B32",
"c  c #654C36",
"v  c #724A32",
"b  c #6A5339",
"n  c #74533B",
"m  c #78553A",
"M  c #724F2C",
"N  c #596337",
"B  c #6A733D",
"V  c #3B3C45",
"C  c #433D42",
"Z  c #454343",
"A  c #494543",
"S  c #4C4A43",
"D  c #4C4A4B",
"F  c #45474A",
"G  c #534B46",
"H  c #544D4B",
"J  c #594E48",
"K  c #56524C",
"L  c #59534D",
"P  c #595847",
"I  c #4A4C53",
"U  c #5B5653",
"Y  c #5D5954",
"T  c #5A5758",
"R  c #544E51",
"E  c #664B42",
"W  c #675A4B",
"Q  c #795B43",
"!  c #775948",
"~  c #625B55",
"^  c #635C5C",
"/  c #685C5A",
"(  c #745C52",
")  c #5A624B",
"_  c #66664B",
"`  c #7B634B",
"'  c #76604C",
"]  c #6D7447",
"[  c #65625C",
"{  c #69645C",
"}  c #686655",
"|  c #756B55",
" . c #786759",
".. c #767757",
"X. c #6F7653",
"o. c #585D61",
"O. c #635B62",
"+. c #6A6563",
"@. c #6E6965",
"#. c #686868",
"$. c #726C65",
"%. c #726C6A",
"&. c #786965",
"*. c #75726C",
"=. c #7A746C",
"-. c #797867",
";. c #757372",
":. c #7B7473",
">. c #7B7A73",
",. c #7C7B7A",
"<. c #787977",
"1. c #6D6E73",
"2. c #5D626A",
"3. c #825A44",
"4. c #83634B",
"5. c #866B53",
"6. c #886F56",
"7. c #866C5A",
"8. c #8B735B",
"9. c #857657",
"0. c #92735D",
"q. c #8A7665",
"w. c #887768",
"e. c #937A65",
"r. c #947B68",
"t. c #827A75",
"y. c #837C7A",
"u. c #897D77",
"i. c #927D72",
"p. c #8D6D65",
"a. c #A57E6D",
"s. c #74BE28",
"d. c #7B8449",
"f. c #7B8450",
"g. c #7E817B",
"h. c #B9DA0A",
"j. c #868D53",
"k. c #909956",
"l. c #848A69",
"z. c #99826B",
"x. c #85827B",
"c. c #89847D",
"v. c #878579",
"b. c #998675",
"n. c #9C8A7C",
"m. c #988675",
"M. c #93996D",
"N. c #A38C7D",
"B. c #A68A76",
"V. c #AA917D",
"C. c #A4856C",
"Z. c #717A86",
"A. c #867E81",
"S. c #7A828B",
"D. c #858482",
"F. c #8B8483",
"G. c #8C8A84",
"H. c #8D8C8A",
"J. c #868880",
"K. c #918B86",
"L. c #938D89",
"P. c #988C87",
"I. c #96948C",
"U. c #98948E",
"Y. c #999987",
"T. c #9A9793",
"R. c #9D9997",
"E. c #8B9490",
"W. c #A48D82",
"Q. c #AC9C8C",
"!. c #A89684",
"~. c #B49B87",
"^. c #A79C95",
"/. c #B39E93",
"(. c #BCA38C",
"). c #B7A18C",
"_. c #AAA499",
"`. c #BDAB94",
"'. c #BCAC9B",
"]. c #B5A798",
"[. c #B1B398",
"{. c #8B98A4",
"}. c #9DA8AC",
"|. c #BBADA2",
" X c #B3ABA6",
".X c #BBB4A8",
"XX c #AAB2AD",
"oX c #9CA58E",
"OX c #C3AB94",
"+X c #C6AD98",
"@X c #C4B29B",
"#X c #CAB49D",
"$X c #C8AE96",
"%X c #C5B4A4",
"&X c #CCBBA5",
"*X c #C6BCAD",
"=X c #CDBCAC",
"-X c #C8B5A8",
";X c #D3BBA9",
":X c #CABDB3",
">X c #C6BDB6",
",X c #D5BEB6",
"<X c #C4ADA2",
"1X c #B2C3B5",
"2X c #CDC3AB",
"3X c #D6C3AD",
"4X c #CDC2B6",
"5X c #CEC6B9",
"6X c #C3CFBA",
"7X c #D4C4B4",
"8X c #D6C5BC",
"9X c #DDCCBB",
"0X c #D8C9B6",
"qX c #DCD4BE",
"wX c #E2CDB9",
"eX c #E5D1BA",
"rX c #EFF8BA",
"tX c #ADB9C4",
"yX c #B5CEDD",
"uX c #ADC2D1",
"iX c #BCDAEB",
"pX c #B9D5E5",
"aX c #B0CFE2",
"sX c #D8CDC5",
"dX c #DCD5CB",
"fX c #DAD3C8",
"gX c #CDD2D0",
"hX c #E5D7C8",
"jX c #E4DDD3",
"kX c #E7DFD7",
"lX c #EDE8D3",
"zX c #C5DCEB",
"xX c #C4DFF0",
"cX c #C7E2F1",
"vX c #EFF0EB",
/* pixels */
"          2XV.(.'.jXn Q Q v v 9 $ z Q v m 3.x x r r v M u 9 n l v b n Q l n p 3.z 4.Q ` 4.8.kX`.OX'.",
"s.  9.rX  6.a.;XhX` m ` m v Q z + z m 7 r z r x m Q m M n m 6.x u x p z v m Q n ! 4.8.6.Q b v.kXdXQ.",
"vXs.s.    V.$XwXOXQ Q m Q m x x z m m z z 4.6.Q 9 8 8 + + # p ` 5.9.p.x x Q ` ` ` 4.8.6.6.Q ( dX0XhX",
"  h.lX    #X0XqX4.4.; n 5.9 n m v m x 4.8.7 . . X X . o O . X . . p ! r.!.l n ` 9 6.5.4.b n e.e.kXkX",
"          0XhX0.` Q Q x p z w.3.M 4.6.p . X X 6 O # @ - - @ * # O o X e ! 5.Q 4.5.5.8.6.b p.` 6.e.jX",
"          qXhX4.0.0.n Q v b Q ` 8.r.O . O @ 0 . , - 4 0 a # < . . , & o . i z.Q.` W ! ! 8.w.8.8.m.4X",
"          hXz.z.e.4.` n n n p 0.Q o o @ , . A yX{.S A G U : o cXD 5 G q 6 # p B.V.( q.8.` r.b.z.9.n.",
"          lXq.8.q.q.7.! b n 0.Q . o 0 X 2 aXyXyXyX0 G ~ [ +.pXiXiXiXA.a @ 1 - O !./.7.w. .W.r.z.b.m.",
"          w.7.r.m.r.q.5.6.C.B.. * A , {.O.aXXXaX}.= U +.%.V D.;.2 S.cXS.F . a : 0  X6.t.m.m.N.n.].Q.",
"          !. .z.} W.7.r.` Q.O @ 0 q Z.5 cXpXpXaXzX%.o.:.:.U aXZ.g.zXg.5 iXV . S O J .X7.i.m.).n.W.Q.",
"          w.n.n.m.q.q.0.z. .O 2 K }.gX{ :.~ +.E.pX>.%.v.D.o.zXZ.iXS.iXiXuXxXD T A : .X:Xi.m.n.^.m.Q.",
"          W.=.n.W.n.E q.).O 4 Y @.W ( c  .| P G T y.:.v.F.T pXZ.iXtXiXS.iX6XgXD G 1 J _.!.!.Q.'.!.].",
"          ).!.N.W.!.i.r.P.- D d $.q.( g g 9.K | P x.>.I.K.+.cXZ.cXM.[.[.1XXXE.%.^ K V *X/./.%X_. X'.",
"          m.Q.Q.Q.W.z..Xm.1 H a  .@ ' | 8 N P } G x.,.K.E.%.}.;.oXP g.E.oX] D [ ;.+.Z |. X/._..X|.'.",
"          -XW.Q./.W.n..XL s { L } w.w.I.; j._ | S H.x.G.U.=.g a f._ E.Z d.j.j ) ,.U G G.9X/.].|.>X*X",
"          ).=X.XQ.!.i.P.0 G : o ~ c.O j.t X.b f.N E.x.T.I.>.Y a | Y.f.0 M.H W / o ^ U x.u.+.>XsX4Xc.",
"          $Xe.t.e Q.~.:XK U 1 G w.X.6 B @ N i X.f I.y.R.T.g.J s -.Y j < ] ] k.v.-.%.[ c. X).( E V.5.",
"          #X#XQ.7 (.$ _.S U s w G W > ) O G 5 H L G.y.T.T.y.w.o #.Z ..> k.0 d.9.D.@.+. .dXz.OXg OX&X",
"          ~.C.OX; 8.B.~ K ~ G c.} L ; 0 = %.4 X.2 H.x.T.T.J.%.& k.M.g.< j...P.B O.%./ I.~ (.p.g ).7.",
"          V.e.B.e w.m.w S } A L c.- * -.# @.K [ -.K.x.T.R.F.F.S z.l.] > f.l.L...>.%.O.L.W.8.~.g |.B.",
"          #XOXe E 4.p.p.J :.R 0 J 0 # } = ) > ;.K ^ g.T.^.G.D.-.P q ] i j.h .., [ %.o.W.a.B.p.7.r ~.",
"          &XC.W + $ X + O O ; 4 3 j f N # N > t y K.x.R.T.G._ a d...j.t ] g ~ : #.2 # w J R w . y.$X",
"          +X%X* . Y 8 t.O 8 T o C j 2 N # t h X.h U.x.R.T.K.l.>.d.M.] t ) _.$.. +.1.q ; =.G ~ * * =X",
"          0X8.: . A f n.S w @.F.4 i > t K > # t % I.v.U.T.K.X.t k P h { L %.~ * <.%.; ; < x.7 O - u.",
"          ;X3XQ.$ e &.} 0 q { @.q k Z ) > < > t t U.y.T.T.K.} f > S U 4 w.C t.f U ~ ~ G U.T e g ].9X",
"          #X#X#X$ 8 Y 7 L J %.U A h ^ -., +.i y < U.x.I.R.K.f.Z a ^._.6 ;.x.*.A *.U Y A G .X8 e =X=X",
"          `.@Xz.c 3.! g . G +.K d P 2 a , ] < S < H.x.U.R.L.D.R +.<.G 4 q c.| s :.U ~ X 7.e b 9 ].%X",
"          #X;X0XV.n 8.Q , S +.} V X.2 ] | N # S y T.D.T.T.L.u.R >.s $.+.c.2 w.3 *.~ L +.w 7.` ~.8X=X",
"          @X~.+X+X8.e.P., S +.} 5 ..[ N G P C &.H L.L.I.T y.c.+./ t.$.G ~ ~ c.O :.U L [ ].' z.&X%XwX",
"          *XeX3X].$X~.#X- Z #.P 3 } L K 0 $.T =.: L.K.L.T.L.D.#.K ^.Y 3 7.U.J 1 ;.[ U +.'.W.'.7X|.5X",
"          @X).e.;XOX!.:X, G $.O o y G -.C } 2 } d H.U G.T.G c.D ^ R A f :.U R * 4 +.~ T *XV.&X.Xn.`.",
"          ;XB.&X2XV.~.:X1 G +.# [ 2 T D A >.d | 0 H.T y.x.R L.R ~ R L 2 Y 3 2 %.= %.^ { 7X'.V.n.#Xe.",
"          #X7X9XwX#X(.5X< G @.Y Z } y.+.H &.U >., G.O.x.G.L D.H D H.=.4 u.P.J Z ;.*.+./ :X'.0X3X`.:X",
"          OXOX7Xz.$X(.fXq P @.@.*.{ ^ g K { Y g , G.T D.F.U F.D [ w.( 4 - $.0 ,.,.:.+.+.sX&X'.(.Q.0X",
"          #X3X].3X~.+XhX3 G *.$.F | 2 | R P 4 - 1 F.:.y.G.R G.H *.q I.w - 2 o 4 :.y.+.U fX@X'.7X,X].",
"          #Xz.+X0X%XOXhXq G *.%.I h Y { Z f Z G 1 H.D y.K.K F.Z n.&.G 4 7. .{ 3 :.y.@.U :X#X+X@X-X'.",
"          #XOXwXhX+X&XdXa D :.*.Z X.D.J I < *.~ q A.5 :.u.: G.q *.F.1.Z 5 g.R.3 ,.A.@.~ sX%XwX&X;X=X",
"          (.0X#X$Xz.%XjXd G ,.%.V *.U *.A *.P <.3 F.a %.x.V D.R g.D g.Z o.f 1.y <.F.%.T jX&Xq.@X&XhX",
"          %XwX~.-X0XN.hXq G :.*.Z v.q <.D G.S ,.XXH.=.,.G.u.,.^.H.#.H.F <.R _.F ,.A.%.~ jX%XQ.7X3X0X",
"          #XOX].0XB.'.*Xq A ,.;.q g 1.y. X{ ~ t.u.x.D.v.F.F.J.x.x.U @.^.>.D._ C ;.F.=.T jX;XQ.0XsX3X",
"          #X@X`.0X#X`.jX3 Z ,.*.%.;.x.a ;.,.^.G t.x.t.,.D.,.y.L %.c.D.,.L F.:.T >.y.:.T :X;X-XhX7X;X",
"          ].+Xm.+XQ &XhX3 G 8 a ~ :.*.y.@.u.x.c.F.D.=.:.y.;.y.A.A.F.D.+.x.y.y.~ q S y.^ jXsX&X'.V.9X",
"          '.z.).:X=X%XjXC G %.A.F.d t.c.D.D.F.F.F.c.%.>.y.:.D.D.F.c.F.F.F.:.,.u.:.,.:.T jX2XwX^.wXr.",
"          -X7X%XsX%X-XjXV A U F.>.y.F.c.G.L.F.D.F.t.%.:.y.%.y.D.F.F.H.I.K.D.,.>.eXy.%.T jX=X8XdX0X7X",
"          kX*X%X-X-X].jXq A U %.:.>.x.&.+.@.G.x.v.u.%.>.,.=.,.x.F.L.U P./ x.,.:.:.%.@.T kX.X.XsX>X5X",
"          !.7X:X%X%X%XjXs Z J *.:.:.<.,.y.u.D.D.x.D.$.>.:.%.>.t.y.A.c.y.,.<.>.*.;.+.+.I jX5X>X.X5X5X",
"          %X`.`.*Xi.=XjXF A H  .%.%.$.=.;.;.:.,.,.J %.:.;.%.5 ,.,.,.:.:.:.*.*.>.E %.%.K kX:X_.L.-X).",
"          ].@X7X%XY.-XhXO.H @.%.=.:.:.t.y.>.y.x.u.v.x.y.=.t.,.;.;.=.*.%.+.{ { *.;.*.:.D kX].2X%X:X2X",
"          '.'.%X!.=X5XdXI = V V 3 C Z Z F V F Z V D D A T I O.O.#.1.;.1.#.#.#.#.:.%.+.V fX:X5X4X-X5X",
"          |.'.|.*X%X*XhXy..X8X5X7X5XfXsX5XsXsXdX5X8X*X,X8XsX8X,X:X>X7X>X,X-X:X8XsX:X,X XfX=X X-X:X:X"
};
