/* XPM */
static char *result[] = {
/* columns rows colors chars-per-pixel */
"60 60 210 2 ",
"   c #050506",
".  c #0D0003",
"X  c #0B0907",
"o  c #060708",
"O  c #080708",
"+  c #070809",
"@  c #0B0B0B",
"#  c #140005",
"$  c #1C0006",
"%  c #150409",
"&  c #1C0209",
"*  c #120D0D",
"=  c #1F080E",
"-  c #17120C",
";  c #0D0F12",
":  c #180C10",
">  c #0D1114",
",  c #0F1418",
"<  c #121315",
"1  c #1B1315",
"2  c #141619",
"3  c #16181B",
"4  c #1B1A1B",
"5  c #240006",
"6  c #2B0007",
"7  c #23020A",
"8  c #2C0009",
"9  c #24080D",
"0  c #2A080F",
"q  c #33010A",
"w  c #3B000B",
"e  c #2D1D0B",
"r  c #210A12",
"t  c #2E0810",
"y  c #350210",
"u  c #3C0411",
"i  c #330911",
"p  c #3E0B14",
"a  c #3D0D1B",
"s  c #271819",
"d  c #37121A",
"f  c #39250E",
"g  c #25211D",
"h  c #2C231B",
"j  c #3C2B19",
"k  c #171C23",
"l  c #3B1E26",
"z  c #1E2125",
"x  c #1C2229",
"c  c #232326",
"v  c #2B2126",
"b  c #242629",
"n  c #2B242A",
"m  c #27292C",
"M  c #2B292E",
"N  c #322027",
"B  c #3B252C",
"V  c #34292E",
"C  c #232C35",
"Z  c #2B2D32",
"A  c #312C31",
"S  c #3C2931",
"D  c #2E3237",
"F  c #363235",
"G  c #34363A",
"H  c #3C3D3E",
"J  c #44000C",
"K  c #4B000D",
"L  c #53000D",
"P  c #5C000F",
"I  c #440212",
"U  c #4C0212",
"Y  c #450B14",
"T  c #4D051A",
"R  c #480A19",
"E  c #530214",
"W  c #5C0215",
"Q  c #540419",
"!  c #5B031B",
"~  c #540A1B",
"^  c #5C081E",
"/  c #411214",
"(  c #60000F",
")  c #640011",
"_  c #6B0012",
"`  c #64011B",
"'  c #6B011C",
"]  c #640D1B",
"[  c #6D0A1A",
"{  c #730013",
"}  c #7C0014",
"|  c #73011E",
" . c #740A1C",
".. c #7B0A1D",
"X. c #432A0E",
"o. c #482D0D",
"O. c #4F310F",
"+. c #55340F",
"@. c #452D11",
"#. c #4B2912",
"$. c #422F1B",
"%. c #4A3013",
"&. c #46321B",
"*. c #4B341C",
"=. c #553611",
"-. c #583711",
";. c #5B3914",
":. c #563A1B",
">. c #5C3E1C",
",. c #672715",
"<. c #653E12",
"1. c #623818",
"2. c #5C0720",
"3. c #570A21",
"4. c #5C0A23",
"5. c #431D26",
"6. c #4B1A29",
"7. c #5C1028",
"8. c #650621",
"9. c #630B24",
"0. c #6D0A24",
"q. c #680D27",
"w. c #730421",
"e. c #7E0726",
"r. c #750924",
"t. c #7A0A25",
"y. c #740C29",
"u. c #7A0C2A",
"i. c #671028",
"p. c #75122B",
"a. c #7C112E",
"s. c #7F1231",
"d. c #48212D",
"f. c #523C23",
"g. c #452734",
"h. c #4A2534",
"j. c #4A2936",
"k. c #4B2D39",
"l. c #532635",
"z. c #532C3C",
"x. c #5F411E",
"c. c #674013",
"v. c #6A4214",
"b. c #61411E",
"n. c #6B451B",
"m. c #734612",
"M. c #764915",
"N. c #7A4A13",
"B. c #784D1C",
"V. c #54412D",
"C. c #554431",
"Z. c #594732",
"A. c #5B4834",
"S. c #584A3B",
"D. c #614320",
"F. c #654E34",
"G. c #695136",
"H. c #655039",
"J. c #715535",
"K. c #745837",
"L. c #3C3141",
"P. c #3B3E42",
"I. c #403F43",
"U. c #3E4145",
"Y. c #3D434A",
"T. c #424246",
"R. c #42454B",
"E. c #46494D",
"W. c #544D46",
"Q. c #454A51",
"!. c #4A4D54",
"~. c #6E4959",
"^. c #445164",
"/. c #4F6570",
"(. c #536E76",
"). c #65656A",
"_. c #840015",
"`. c #8B0017",
"'. c #84061B",
"]. c #910017",
"[. c #940018",
"{. c #9C0019",
"}. c #A4001B",
"|. c #AC001C",
" X c #B3001D",
".X c #BB001F",
"XX c #BC0121",
"oX c #C1001F",
"OX c #C30021",
"+X c #C80023",
"@X c #824F14",
"#X c #845015",
"$X c #8D5617",
"%X c #8E591E",
"&X c #955A17",
"*X c #965B17",
"=X c #925A19",
"-X c #9A5E19",
";X c #9E611A",
":X c #A2621A",
">X c #A8661A",
",X c #AE6B1D",
"<X c #B56E1C",
"1X c #9F6726",
"2X c #577083",
"3X c #647A86",
"4X c #6A8B93",
"5X c #678DAC",
"6X c #7697A9",
"7X c #81888F",
/* pixels */
"@X@X@X@X@X@X@XN.m.M.N.N.N.N.N.N.N.N.N.N.N.N.N.N.N.N.N.N.N.N.N.N.N.N.N.#X#XN.@X@X@X@Xm.m.N.m.m.m.N.N.N.#X#X#X#XN.#X#X@X@X",
"<X<X<X<X<X<X<X:.4 s ;.#X$X=X$X$X$X=X*X-X*X*X;X*X*X*X*X*X;X*X*X*X*X*X-X<X<X<X<X<X<X<XM.M.M.N.M.N.N.<X<X<X<X<X<X<X<X<X<X<X",
"<X<X<X<X<X<XB.h d '. X .d s s s s %.N.=X*X*X*X*X*X*X*X*X*X*X*X*X*X*X*X,X,X,X,X,X,X1XF.W.E.T.V.v.N.<X<X<X<X<X<X<X<X<X<X<X",
"<X<X<X<X<X<X1.4 ...XoX.X|.|.{.{.[.} W #.N.*X*X*X*X*X*X*X*X*X*X*X*X=XG.E.T.U.T.T.T.T.T.R.T.T.b ; f ;X<X<X<X<X<X<X<X<X<X<X",
"<X<X<X<X<X,X>.4 ..OXoX X X|.}.{.[.[.`.R >.*X*X*X*X*X*X*X*X*X*X*X*XG.R.s # 5 6 5 q q 6 7 % n !.A * * ;.:X<X<X<X<X<X<X<X<X",
"<X<X<X<X<Xb.4 ]  XoXoX.X X|.}.{.[.[.`.{ ,.#X*X*X*X*X*X*X*X*X*X*X=XG.v # # $ 0 w u q q q 8 S E.m ; ; X X ;.,X<X<X<X<X<X<X",
"<X<X<X<X<X>.4 ..oXoX.X.X X|.}.}.{.[.`._.R 1.*X*X*X*X*X*X*X*X*X*XG.R.5.J J w 5 # & 6 6 6 6 9 S H 4 * ; * X c.<X<X<X<X<X<X",
"<X<X<X<X=X&.4 ..oXoX.X.X X|.}.{.{.[.[.`.) 1.*X:X:X:X;X;X;X*X*X=XG.N w E U U J q 5 %       . M E.b @ F m X X.=X>X>X>X>X>X",
"<X<X<X<Xx.3 ..XXOXoX.X.X X X}.}.{.[.[.`.`.Y v.<X<X<X<X<X;X*X*XF.R.B K E E E E J q $ 5 q J I B R.m * < 3 ; O -.&X*X*X*X*X",
"<X<X<X,X>.4 ..OXOXoX.X X X|.|.{.{.[.[.`._.E n.<X<X<X<X<X*X*X$XG.N q U W E E K J w 6 w ! w.8.u S !.m X 4X3X3 =.&X*X*X*X*X",
"<X<X<Xb.4 f [.OXoXoXXX.X X|.}.{.{.[.[.`.`._.Y v.<X<X<X<X-X*XG.E.N J E E E E J J q J ` y.y.0.4.z.E.m X m 6X(.; -.*X*X*X*X",
"<X<X<X>.4 t.+XoXOXoX.X X X|.}.}.{.{.[.`._._.Y n.<X<X<X<X-X%XH.N J T E E K K J q 8 T w.u.y.y.i.R F U.z X D Z @ =.&X*X*X*X",
"<X<X;X@.4 ..OXOXoX.X.X X X|.}.}.{.[.[.`.`._.} Y m.<X<X<X-XG.E.d.Y W E U U J J q w `  .y.u.y.i.^ k.E.b @ M c   - <.*X*X*X",
"<X<Xx.2 ..OXoXOXoXoX X X|.|.}.}.{.[.[.`.`._._.Y n.,X<X<X%XS.l w E Q E K K K q 5 T r.t.y.y.a.p.i.l.E.M @ X X @ @ =.*X*X*X",
"&X$X*.4 t.+XoXOX.X.X.X X|.|.}.{.{.[.[.`._._.} } / ;.*X=XA.U.l U E E U U J U q u y.s.u.u.y.p.p.y.R V R.b X ; @ @ X.M.@X#X",
"m.@.4 2 ..oXoXoX.X.X X X|.|.{.{.{.[.[.`.`._.} { Y %.v.n.S.d.U ^ E E U K U w w ^ a.u.t.r.0.p.p.p.] k.E.b @ @ @ X X X.m.m.",
"m.:.h 2 ..oXoX.X.X.X X X|.}.{.{.[.[.`.`.`._.} { _ / =.Z.Y.5.J R U I I I U q U 0.u.u.w.w.w.y.y.0.' 5.P.b @ @ @ X X X.m.m.",
"m.m.&.3 ..+XoX.X X X|.|.|.}.{.{.[.[.`.`._.} } { { Y %.C.N & $ 5 q w w J q 8 U [ u.u.t.r.y.w.8.' ` z.Q.b * @ @ @ o   X.m.",
"m.m.&.3 ..+X.X.X.X X|.|.}.}.{.{.[.`.`.`._.} } { _ p o.A.B w K u q 5 $ 7 5 8 ! r.t.u.u.u.e.w.' _ _ l.E.b @ @ < @ X X X.m.",
"m.m.&.g t.+X.X X X|.|.|.}.{.{.[.].`.`._._._.{ { { p %.A.B q I U I U J q 7 8 W 0.y.u.u.u.u.w._ ` _ l.E.b @ @ @ @ X + o.m.",
"m.m.&.4 [ .X.X X X|.|.}.}.{.[.].`.`._._.} } { { { 5.f.S.l q J I U U I J 6 K ' r.t.t.r.t.e.| ' ) E k.Q.b @ @ X @ @ @ @.M.",
";X;X:.4 1 ...X X|.|.}.}.{.{.[.].`.`._._.} { { _ _ ~.7X).N 5 w I T T I w 8 K | | | ' ' | w.| ' ` I A P.k ; @ @ @ @ - v.;X",
"<X<XB.g < ...X|.|.}.}.{.{.[.[.`.`._.} } } { { _ ( d.S.W.n 5 q w I R I I q I _ ' ` _ ' | | | w.' 6.P.M @ @ + X @ X o.;X<X",
"<X<X;Xf.2 ...X|.|.}.}.{.{.[.`.`._._.} } { { _ _ _ p %.Z.v 5 w J I I I u 8 I ` ` ) ` ' ' ' | r.' l.R.b @ @ @ @ @ X v.<X<X",
"<X<X<Xb.4 ...X|.}.}.{.{.[.`.`._._.} } { { _ _ _ ( i %.A.v 5 w J I I I w 6 I ) _ ' _ ' ' ` ' ' ' l.R.b X @ @ @ X o c.<X<X",
"<X<X<Xb.2 ...X}.}.{.{.[.[.`.`._.} } } { { _ _ ( ( i O.A.v $ q w w w u y 7 w ` _ | | | | W W ` ! h.E.m @ @ @ + @ X c.<X<X",
"<X<X<Xb.< [  X}.{.{.[.[.].`.`._.} } { { _ _ _ ( ( i o.A.n $ q w q u p y 5 J ` ' ' | | ' ` W W K B E.b X @ @ X + X c.<X<X",
"<X<X<XV.2 d '.}.{.{.[.`.`._._.} } { { { _ ( ( P P i %.A.v 5 8 w w y u q 7 q W ' | | ' ' ' ' ` I V G 3 X ; @   + * v.<X<X",
"<X<X<XB.g < [ }.[.[.[.`.`._._.} { { _ _ _ ( ( P W t -.F.v 5 8 q q p u q $ w W ` ' ` ` ` ` ' ` l.R.m ; X D m   o o.;X<X<X",
"<X<X<X;X*.2 [ }.[.`.`.`._.} } { { _ _ _ _ ( P P L t ;.F.v 7 q q y u y q 5 q L ` ' ` ' ' ` ` ` z.Q.b + X /.2Xk o c.<X<X<X",
"<X<X<X<X>.< [ |.[.`.`._._.} } { { _ ( _ ( P P L L 0 ;.F.v 7 6 8 q q q q 5 8 E ` 8.' ' ' ` Q ! z.!.M X ; 4X2X; o c.<X<X<X",
"<X<X<X<X1.< [ }.`.`._._.} } { { _ _ ( ( P P P L K 0 ;.G.v 5 5 6 8 8 q 8 5 q E ` ` ' 8.' ` E Q j.Q.b X . 4X/.  o v.<X<X<X",
"<X<X<X<Xx., ] {.`._._.} } } { _ _ ( ( ( P L L K K 9 -.G.N 7 6 6 6 8 8 6 5 q E ` ` ' 8.8.8.8.T S U.x X < >     X c.<X<X<X",
"<X<X<X<Xx.< p } `._._.} { { _ _ _ ( ( P P L L L K 6 -.F.N 8 6 8 8 5 5 5 & q Q 8.8.8.8.q.9.2.a A G 4 + o   o   * m.<X<X<X",
"<X<X<X<Xx.- * ~ `._.} { { { _ _ ( ( P P L L K K K 9 -.F.N 7 6 8 8 8 5 5 # 8 Q q.q.q.q.2.2.8.d.P.b + + X X o o X.;X<X<X<X",
"M.m.m.M.x.j < W `.} } { { _ _ ( P P P L L L K J J 9 o.Z.N 7 5 6 0 8 6 $ $ y 2.q.9.9.9.2.9.8.I.R.z o o ; ; X o X.m.m.m.m.",
"m.m.m.m.v.&.2 W `.} { { _ _ _ ( P P L L L K J J J 9 @.C.N 7 6 5 5 6 5 5 & y 4.7.4.2.2.4.4.7.k.R.z X o o o   o X.m.m.m.m.",
"m.m.m.m.m.$.< W `.{ { _ _ ( ( P P L L K K K J J w 9 X.C.N 7 5 5 5 5 8 7 & q 3.i.q.4.4.4.4.7.k.P.c o o o   o   X.m.m.m.m.",
"m.m.m.m.m.$.< W _.{ { _ _ ( ( P P L L K K J J w w 9 o.C.N 7 5 5 5 5 5 7 & 8 T 7.7.q.2.2.7.R V P.z X o o o o   X.m.m.m.m.",
"m.m.m.m.m.$.< i { { _ _ ( ( P P L K K K J J J w w $ X.C.v 9 5 6 7 7 7 7 % 8 T 7.4.7.2.2.3.a V D 2 o o   o   X o.m.m.m.m.",
"m.m.m.m.m.&.4 * L { _ ( ( ( P L L K K J J J w w q 9 @.C.v & 7 7 7 7 7 7 % t T 3.3.2.! ! 4.h.P.k o   o o o o e -.m.m.m.m.",
"m.m.m.m.m.-.h > Y { _ ( ( P P L K K K J J w w w q n U.T.n & & 7 7 7 & r & y Q ^ 9.9.2.2.^ k.Y.c     o o o o X.m.m.m.m.m.",
"<X<X<X<X<X<Xx., K { ( ) P P L L K K J J w w w w q L.^.Q.n 7 7 7 7 7 7 & & y Q 4.9.4.9.9.2.j.R.x o o + + o o b.<X<X<X<X<X",
"<X<X<X<X<X<Xx.< U { ( ( P L L K K J J w w w q 6 8 s V.S.b & & 7 7 7 & & & 8 Q 2.9.9.q.9.Q g.Y.b o +       o c.<X<X<X<X<X",
"<X<X<X<X<X<Xx.* Y { ( P P L L K K J w w w q q q 8 $ =.G.n % & & & 7 & & & 8 Q 9.8.9.9.8.u V Y.x             c.<X<X<X<X<X",
"<X<X<X<X<X<Xx.; J ) ( L L L K K J w J w w q q q 8 $ =.F.v & 7 & & & & 7 & 6 U ! ! ! ` ` a A Z < o o       X v.<X<X<X<X<X",
"<X<X<X<X<X<Xb.< * J ( P L L K K J J w w q 6 q 6 8 % =.F.v % & & & & & & $ 6 J E E E ! ` d.P.k     +       f =X<X<X<X<X<X",
"<X<X<X<X<X<XB.h ; p ( L L K K J J w w q w q 8 8 6 % =.G.c % 7 & 7 & & & $ 8 J U U E E Q h.Y.z     3 <     <.<X<X<X<X<X<X",
"<X<X<X<X<X<X>X:.> w P L L K K J J w w q 6 q 6 6 5 % ;.F.c & & & = & & % # 8 K E W E Q ! h.R.z o o k ,     <.<X<X<X<X<X<X",
">XN.N.N.N.N.N.&.> p P L K K J J w w w q q 6 6 6 6 % c.J.Z = $ & = & & & # 8 U E Q Q E I S R.x o , 4X(.    =.&X&X*X*X*X*X",
">XN.N.N.N.N.N.*.< u P L L K J J w w q q q 6 6 6 5 % v.J.A r & & & & & & # 8 E W ! ! Q w V Y.k o k 6X(.    +.=X*X*X-X*X*X",
">XN.N.N.N.N.N.*.< q P K K K J w w w q 6 6 6 6 6 5 % c.K.A r & & % & & % $ 8 T 2.` Q E l G Z < o C 5X2X> . -.*X*X*X*X*X*X",
">XN.N.N.N.N.N.*., % w L K K J w w w w 6 6 6 6 6 5 % c.J.M r & & # $ # $ % 5 T 3.4.^ Q h.Y.x     ; +     f M.*X*X*X*X*X*X",
">XN.N.N.N.M.N.x.g ; i L K J J w w w 6 q 6 6 6 6 $ % c.J.M : % $ # # % . . # y I I U E g.Y.z     k ,     o.&X*X*X*X*X*X*X",
">Xm.N.N.N.N.N.M.&.> q K J J J w w q q 6 6 6 6 5 5 % <.J.M * . . . .   . # $ # . . # # b Y.z             +.*X*X*X*X*X*X*X",
">XN.N.N.N.N.N.#X=.* q L K J J w w q 6 6 6 6 5 5 5 % <.J.Z : 7 9 7 7 9 7 7 7 $ $ $ $ # M Y.x             +.*X*X*X*X*X*X*X",
"m.m.m.m.m.m.m.m.j < q L K J w w q q 6 5 $ % - * ; * o.V.G H U.U.Y.T.Y.Y.U.m 1 % % $ X b P.k         X X X.m.m.m.m.m.m.m.",
"m.m.m.m.m.m.m.m.j @ q K J w 9 - X * * * - e <.m.m.m.m.m.m.m.m.m.v.D.V.H H U.U.U.U.U.F G Z < X X + @ o.v.m.m.m.m.m.m.m.m.",
"m.m.m.m.m.m.m.m.@.< * * * 4 %.m.m.m.m.m.m.m.m.m.m.m.m.m.m.m.m.m.m.m.v.m.m.m.m.m.m.m.m.n.*.=.m.m.m.m.M.m.m.m.m.m.m.m.m.m.",
"m.m.m.m.m.m.m.m.m.m.m.m.m.m.m.m.m.m.m.m.m.m.m.m.m.m.m.m.m.m.m.m.m.m.m.m.m.m.m.m.m.m.m.m.M.v.m.m.m.m.m.m.m.m.m.m.m.m.m.m."
};
