/* XPM */
static char *_160d6daeb6d4e48ffc9b3edf2be387aeeJOLH5nUkm7Iehg[] = {
/* columns rows colors chars-per-pixel */
"50 50 230 2 ",
"   c None",
".  c #373E1D",
"X  c #55633D",
"o  c #5B6246",
"O  c #54774B",
"+  c #6B695B",
"@  c #677A56",
"#  c #65624C",
"$  c #646464",
"%  c #79796E",
"&  c #767467",
"*  c #6E727B",
"=  c #6F7174",
"-  c #7D7A73",
";  c #7A7573",
":  c #677E67",
">  c #88765E",
",  c #807E79",
"<  c #867C71",
"1  c #75895B",
"2  c #6F8855",
"3  c #6E8B6D",
"4  c #6E836B",
"5  c #778262",
"6  c #7B9968",
"7  c #798578",
"8  c #7C9B78",
"9  c #77A072",
"0  c #85886C",
"q  c #869C6A",
"w  c #85837B",
"e  c #8C847D",
"r  c #8E8A7C",
"t  c #868573",
"y  c #948B77",
"u  c #938C7C",
"i  c #968776",
"p  c #859577",
"a  c #959978",
"s  c #94856C",
"d  c #85A26A",
"f  c #85A661",
"g  c #90AA6F",
"h  c #8CA477",
"j  c #97A67C",
"k  c #8BB77C",
"l  c #ACA479",
"z  c #7D8783",
"x  c #7A9683",
"c  c #848982",
"v  c #8D8A83",
"b  c #84898A",
"n  c #8B8D8D",
"m  c #878588",
"M  c #948E84",
"N  c #978F88",
"B  c #8E9385",
"V  c #8D918A",
"C  c #8A9A88",
"Z  c #949284",
"A  c #9A9483",
"S  c #9A9C86",
"D  c #94938C",
"F  c #9B958B",
"G  c #9C9A8B",
"H  c #959D8B",
"J  c #8A8E95",
"K  c #8D9294",
"L  c #8F959C",
"P  c #8F9A9A",
"I  c #939393",
"U  c #959A95",
"Y  c #9C9C94",
"T  c #92959A",
"R  c #959A9C",
"E  c #9A9B9B",
"W  c #9A9794",
"Q  c #A69E85",
"!  c #A39D8C",
"~  c #A6978F",
"^  c #A39D95",
"/  c #A29E99",
"(  c #AC9F92",
")  c #82A080",
"_  c #9BAA8B",
"`  c #97AA85",
"'  c #9FB08C",
"]  c #9EA393",
"[  c #9DA29B",
"{  c #98A79B",
"}  c #9AB59C",
"|  c #A7A788",
" . c #B6AB8B",
".. c #BDB78F",
"X. c #A3A193",
"o. c #ABA191",
"O. c #ADAA94",
"+. c #A3A39D",
"@. c #ABA59A",
"#. c #A7AA9D",
"$. c #ADAA9B",
"%. c #A2AE92",
"&. c #B4A596",
"*. c #B4AC9C",
"=. c #B5AE96",
"-. c #A9B29C",
";. c #A5B193",
":. c #B4B59D",
">. c #B6BA9A",
",. c #A4B48A",
"<. c #8D9AA2",
"1. c #959CA2",
"2. c #9B9EA3",
"3. c #999DA9",
"4. c #959AA5",
"5. c #A49FAC",
"6. c #96A3A2",
"7. c #9DA2A5",
"8. c #9DA4AB",
"9. c #9AA6A7",
"0. c #9CB8A0",
"q. c #9BA4B2",
"w. c #9EAAB1",
"e. c #A3A4A3",
"r. c #AAA7A4",
"t. c #A4AAA3",
"y. c #ACABA5",
"u. c #A4A6AB",
"i. c #A4AAAC",
"p. c #ACACAB",
"a. c #A8A7A9",
"s. c #B2AEA4",
"d. c #B1AFAA",
"f. c #B9ADA0",
"g. c #ADB0A2",
"h. c #ABB2AC",
"j. c #A4B2A9",
"k. c #B3B2A5",
"l. c #BCB4A4",
"z. c #BDB9A3",
"x. c #B4B4AC",
"c. c #BBB5AB",
"v. c #B4BAAD",
"b. c #BCBAAB",
"n. c #A4ACB3",
"m. c #ABADB3",
"M. c #A5AFBB",
"N. c #A8AEBA",
"B. c #A0A7B4",
"V. c #AEB2B4",
"C. c #ABB3BB",
"Z. c #AEBABC",
"A. c #A5B2B7",
"S. c #B3B4B3",
"D. c #BAB6B3",
"F. c #B6B9B6",
"G. c #BBBBB4",
"H. c #B2B5BB",
"J. c #B5BABC",
"K. c #BBBDBB",
"L. c #C7BE9A",
"P. c #C1BBAD",
"I. c #C5BAA8",
"U. c #C2BDB3",
"Y. c #C8BFB3",
"T. c #C1BFBA",
"R. c #B4C19F",
"E. c #A5C48D",
"W. c #B8C3AC",
"Q. c #B5C6BB",
"!. c #BEC1BB",
"~. c #BFC6B1",
"^. c #A6C4A6",
"/. c #C4C0AD",
"(. c #CBC5AA",
"). c #C1C4A6",
"_. c #D1CAAF",
"`. c #C4C2B5",
"'. c #CAC3B6",
"]. c #CDCBB4",
"[. c #C3C3BC",
"{. c #CAC5BD",
"}. c #C9CABE",
"|. c #C5C8BD",
" X c #D2CDBD",
".X c #D5CDB4",
"XX c #DAD3BD",
"oX c #AEB6C2",
"OX c #ABB7C0",
"+X c #B4BCC3",
"@X c #BABEC2",
"#X c #B4BECA",
"$X c #BABFCA",
"%X c #B1B6C3",
"&X c #BDC2C4",
"*X c #B7C2CC",
"=X c #BBC3CB",
"-X c #BCC6D2",
";X c #BEC9D3",
":X c #BDC8D8",
">X c #C3C5C3",
",X c #C9C7C2",
"<X c #C5C9C3",
"1X c #CBCCC4",
"2X c #C2C6CB",
"3X c #C4C9CD",
"4X c #CBCCCB",
"5X c #D1CDC4",
"6X c #D3CFC8",
"7X c #CDD1CA",
"8X c #CED0C7",
"9X c #D3D2C4",
"0X c #DAD5C5",
"qX c #D3D2CC",
"wX c #DBD6CA",
"eX c #DFDDCA",
"rX c #C3C6D2",
"tX c #C4CCD3",
"yX c #CACDD3",
"uX c #C8CDDB",
"iX c #CED2D2",
"pX c #CDD3DB",
"aX c #D3D3D4",
"sX c #DBDAD3",
"dX c #D4D3D9",
"fX c #D6DADD",
"gX c #D9DADE",
"hX c #D5D8D5",
"jX c #E7E5D8",
"kX c #D3DAE2",
/* pixels */
"a S.e.                                            B d.a.                                            ",
"1.aXn         Y 4X[.+.                            2.dXe.        d.1XT.e.                            ",
"M S.u.        G.>Xw +.      < D.7.[ =.    $Xm.  P.+.p.i.        x.4XY +.      ^ >XR t.:.    oXp.  l.",
"  b.U.  ,X    [.}.9XD.r.    y.y +.=Xi.v.  kX;X$X    P.D.  d.    `.1X9Xx.-     [.M G +XH.)   fX;X2X  ",
"B _     p.>X X      T.1X    / `.i.R v   #X+XOXpXx.V p     i.qXY.      ,X1X    $.!.n.T v   %XOX*XpXi.",
"  m.n.  D.u `.K.y.                      q.fX+XU.    H.7   G.F [.`.v                       q.3XC.@.  ",
"        S K.4Xk.<Xq p.U.v   G >XK.G -.  C.N.C.            k.T.4Xs.K.1 p.6X$.  w [.K.t ;.  N.C.H.    ",
"J.[.E     G C.U.  2.K.%XR   qXY.u y.y.  *X5.H   b.@XK.T     E &XY.  5.@XH.E   qX( s.@.k.  *XS.@   1X",
"&XR K           I l.e.i.t.        f     Y `.  Q.J.J.1.J           I l.e.7.Z         g     G.g.  J.&X",
"i.D {.  3XaXp.K.      z.    ; , q.+Xu.  D.  x *XS.e.+.{.  4XhXu.p.      :.    E U M.%Xi.  G.  { +XH.",
"V.,XI     aXhXH.S.e.        Y +X;XtXq.    C 8.C.G.m.K.r.    sX>X+XY p.        / tXtXrXN.    t.7.+XG.",
"      >     3 >X1.P   * m c   8.tX8.v                   s     z >X1.[   * b n   i.tX7.Y             ",
"  S.e 5Xr.p.  9 e.  { G.qX5X/.    1.  p (     u.7.  G.A U.y.V.  8 Y   t.K.sX}.c.    3.  %.*.    n.p.",
"  ^ }.`.d.S.V       wX*.z G.1XP.      i.&X2X    U   *.x.[.G.p.p.      jXX.b sX{.F       9.K.&X    9.",
"  sXG.K.T.i.p       XXy sX`.b.E I   z.y.m.          1Xh.G.[.i.4     E.eXy jX!.).k.m   P.p.K.        ",
"        d F p.  [ [   T .Xb.>.        5.5     n.R         d X.S.  K H   K $.:.W.        7.0     8.% ",
"    T ^ D i.-Xz   +.        } 6.}       s.J.  q       y.G w J.*X7   ]         ^.8.}       [.F.  q   ",
"    I $.C.1.p._   . y.S.%XtX$ 4X/ pX  F m.>Xa.        Y *.@Xi.x.j   o c S.oXdXc tX2.3X  e.K.>X7.    ",
"4X  Z Z u _.  [.2X    o k.K.p.n.$XtX  t.p.h.K.  p.,X  P.X.@.I.  |.K.    X s.J.Z N.+X2X  u.F.S.!.  d.",
"3X!       A.>XS.4XS.        ! qX%X    Y P.v.p.  u.3Xy       V.K.+X4Xp.        G wX%X    Y g.`.G   u.",
"+X    7.n.N.S.i.m w   a.L m.E       |.>X      ..9XJ.    7.i.C.V.u.v W   T T C.D       x.4X       .jX",
"=         ].7XV.S V   J 8.w.S.&Xk.  9XP.G.$.    h.$         P.iXS.X.I   n +XB.!.&Xk.   XY.k.@.    V.",
"  c.6             8   E [ w.&X2XK.    U.+.t.x.    1 '.              3   V b w.yX=XG.    U.x.p.x.    ",
"+.C.x.h         S.>Xi                             t.C.G.          K.S.y                             ",
"@.I 7.        G.s./ -       0 e.#.#.            p.#.2.i.        !.k.+.E       & [ k.X.            y.",
"p.k.U.        [.S.qXE S.    & E E H.C.g.  @X-XQ.  G.x.G.        `.K.{.I p.    e E L yXV.+.  Z uXW.  ",
"        S.aXU     `.K.!.    s.u.c.u.p.  Z.tXrX3Xy.        u.dX+.    K.T.T.    Y 2.l.i.p.  OX*X*X3Xp.",
"  8.H.  1Xe.`.K.`.                (.F.  *Xn.A.<X  :.8.K.  1Xh.x.!.P.              | (.S.  A.OXZ.<X  ",
"        C [.s.[.D   S.G.l   [.1X<Xv.    <.+X&X            h.S.G.,X+   p.G.    ,X,X,X~.    6.*XF.    ",
"qXyXx.    H.T.6X  D yXK.4.k K.G.x.P.c.  %XS.[     1XdX[     @XN [.  e.4XS.K ` >XK.v.I.s.  %XH.t.    ",
"V.7.k.          e.U.r.! u.    2 k.&.y.  +Xz.    &XV.i.G.          p.U.x.E i.      #.( y.  &Xx.    @X",
"&X=.Z   K.>XS.t.    `.`.    7.+Xq.P 1.  [.    *XF.H. .M   K.2Xp.[     b.`.    u.@X3.6.6.  #.    rXH.",
"u.5.w & { >XaX+.u.h.        R ^ ~ *X+X      N.e./ u.e.&   n.hXaXD e.v.        1.w e *X+X      n.i.< ",
"            C.2Xn.S.  : 1Xj   P.*XC.<.                        J.@Xu.i.  7 5X    $.=XZ.T             ",
"  Q % H V.X   [ e.    9X0X`.c.  J 6.E   1X    e.7.  *.& D.i.    I [   7 `.9XU./.  L 4.7.q 1X    t.4.",
"  B Y *.c.K.R       0XA x.x.1Xp.      +.>XV.    n.  & p.( Y.K.K       XX~ k.G.'.D.      e.[.e.    i.",
"  s.Z G.c.K.k.}   )..X^ u 1Xv.].u.  &.jXrXj         F s.U.$.G.#.    .X.Xk.t |.[ z.u.  &.wXS.6       ",
"          ' G.  `   3 F wXm 8X`.b.    c e.    9.@           ,.5X  -.  3 ^ 9XK sX~.:.    u.e.    i.@ ",
"    p.i.S.qXu.X.  9.                      h.  ]       r.m.D.h.S.  c w.                    ,.S.  v.  ",
"    ] V.8.u.m.V     m.r.%X7 C.+X*XD.  t u.&Xe         Y i.4.2.i.t     9.K.%XI C.+X-XgX  A 1.J.G     ",
"9X  &.Y E k.          U % K.dXZ uXuX  +.2Xi.7.  !.1X  *.E e.{.          k.D x.yXA 2XrX  d.2Xi.R   aX",
"&XG.  `     % G !.V.        {.qXrX0.  s.k.k._.  E @Xc.  h   O Y k.!.>X        1Xp.yX    l.s.c.).  p.",
"C.    ) C.K.J.K.i.Y   i.T R     D.  :.        ..p.@X    C 7.H.J.&X7.Y   2.E D     p.  ~.        L.p.",
"e.        K.$.D.h.Q   n K.F.u.V.~.  7XqXT.G.    k.V.        S.U.r.y.X.  n K.K.e.V.%.  1XqXK.b.    D.",
"                @XI   7.aXV.dXgXiX  l [.D.y.A                     H.J   T hXn.gXgX7X   .T.x.p.k.    ",
"+.E S.          +.v.a                   ` {.      F V.S.        j S.x.                    ;.{.      ",
"W @X1.        c., D.D.        G                 e.e F.4.        F r.U.D.      a #.                e.",
"y.s.F.        ,X|.1Xe.V.    U J.x.N.t.E         # x.y.p.        K.|.{.e.t.    [ D.G.8.p.t.        + ",
"                G.[.K.S.    G p.r.Y.4X                            {.'.J.p.    +.t.y.l.S.            ",
"                      >X    $.(.:.G 1X                            ]     hX    @.(.I.b.1X            "
};
