/* XPM */
static char *_1e77a25ace447c2d6b2a084ed514c7cb6PZ7xMe19oUsrU8[] = {
/* columns rows colors chars-per-pixel */
"60 60 28 1 ",
"  c #734612",
". c #744612",
"X c #744712",
"o c #754712",
"O c #784913",
"+ c #7A4A13",
"@ c #7B4B13",
"# c #7F4D14",
"$ c #824F14",
"% c #845014",
"& c #855115",
"* c #8D5616",
"= c #915816",
"- c #925917",
"; c #945A17",
": c #965B17",
"> c #985C17",
", c #9B5E18",
"< c #9F6119",
"1 c #A06119",
"2 c #A26219",
"3 c #A56419",
"4 c #A6651A",
"5 c #A9671A",
"6 c #AB681A",
"7 c #AE6A1B",
"8 c #B46E1C",
"9 c #B56E1C",
/* pixels */
"$$$$$$$#@@@@@@@@@@@@@@@@@@@@@@@@X#O%%$$$$$ X.O...$$$$$$$$$$$",
"99999995::::::::::::::::::::::::>;:9989999O@++@O@99999999999",
"99999995::::::::::::::::::::::::;>;8999999@@++++@99999999999",
"99999995::::::::::::::::::::::::>;>8999999@O++++O99999999999",
"99999995::::::::::::::::::::::::;>;8999999@@O@++@99999999999",
"99999995::::::::::::::::::::::::>;>8999999O@O@@@@99999999999",
"99999995::::::::::::::::::::::::;>>9999999OO@@@@O99999999999",
"9999999722222222222222222222>:::>;>5555455%%$$$&$55555555564",
"9999999999999999999999999999,:::>;>;>;>;>;>;>;>;::::;>;>;>;>",
"9999999999999999999999999999,:::;>;>;>;>;>;>;>;>::::>;>;>;>;",
"9999999999999999999999999999,:::>;>;>;>;>;>;>;>;::::;>;>;>;>",
"9999999999999999999999999999,:::;>;>;>;>;>;>;>;>::::>;>;>;>;",
"9999999999999999999999999999,:::>;>;>;>>>;>;>;>;::::::>>;>>;",
"9999999999999999999999999999,:::>>;>;>;>;>;>>>;>:::,::,:>;,:",
"----------------------------%%%%%%%%$$%%%%$$%%$%$$$%$%$%#$$%",
"                           XX                   .......X   X",
"                                                            ",
"                                                            ",
"                                                            ",
"                                                            ",
"         .  .  X          XX                             .  ",
"<<<<<<<<,2<<11,2<<<<2%OXOOO@,<<<<<<<<<<<<<<<<<<<<<<<<2<<,22,",
"999999999999999999999*@@OOO@59989999999999999999999999999999",
"999999999999999999999*@@@@@O59999999999999999999999999999999",
"999999999999999999999*++O@++59999999999999999999999999999999",
"999999999999999999999*++O@++69999999999999999999999999999999",
"999999999999999999999*++@+++69999999999999999999999999999999",
"999999999999999999999*++++++69999999999999999999999999999999",
"999999999999995,,,,,,--=====,,,,,,,,,,,,,,999999999999999999",
"999999999999993:::::::::::::::::::::::::::999999999999999999",
"999999999999993:::::::::::::::::::::::::::999999999999999999",
"999999999999993:::::::::::::::::::::::::::999999999999999999",
"999999999999994,::::::::::::::::::::::::::999999999999999999",
"999999999999993>::::::::::::::::::::::::::999999999999999999",
"999999999999993;-:>>::::::::-:>>::::-:>>::999999999999999999",
"X...XXXXXXXXXXX     ........   .....   ........O......XX.OXX",
"XX          X..         ..      ..          ...         .X  ",
" X          XX           .       .          ..          ..  ",
"                                                        ..  ",
"                                                        ..  ",
"                                      ..        .           ",
"                 .                     .  ..    ..          ",
"9999999999999999999992>->-->69999999999999O@@@OO+99999999999",
"999999999999999999999,>>>>>>99999999999999O@OO@@+99999999999",
"9999999999999999999992>--->>89999999999999++@@@O+99999999999",
"999999999999999999999:>>>>>-69999999999999++@O@@@99999999999",
"9999999999999999999991->>>>-79999999999999++++O@O99999999999",
"9999999999999999999992>>-->>99999999999999+++@O@O99999999999",
"9999999999999999999991>>-:::79999999999999OOOO@++99999998899",
"3O+++++$>->->>4999999988999999999999999999>>::::::::::::>>->",
"5O@@+++$>>->--4999999999999999999999999999->::::::::::::>->-",
"5O@O+@@$->>>>>4999999999999999999999999999>>::::::::::::>->>",
"6++++++$>>--->4999999999999999999999999999-->>>-::::::::>->>",
"3+++++@$->>>>>4999999999999999999999999999>>-->>::::::::>->-",
"6+++++@$->>>>-3999999999999999999999999999>->>->::::::::>>->",
"3+++++@&>>-->>3999999999999999999999999988>>>->>::::::::->>>",
"....                                            .           ",
"....                                            ..          ",
"  ..                                                        ",
"  ..                                                        "
};
