/* XPM */
static char *dc103973bc304e7fe190eb103af835d5CYFn8t6Yts2T6CFi[] = {
/* columns rows colors chars-per-pixel */
"25 25 204 2 ",
"   c None",
".  c #3D111A",
"X  c #352C12",
"o  c #450D1E",
"O  c #5C141C",
"+  c #4D1317",
"@  c #67161E",
"#  c #4A230F",
"$  c #503713",
"%  c #682F16",
"&  c #431522",
"*  c #6B1620",
"=  c #791A25",
"-  c #403939",
";  c #7C3926",
":  c #4A481D",
">  c #524F20",
",  c #4F5424",
"<  c #535425",
"1  c #5D5C29",
"2  c #72592E",
"3  c #59642E",
"4  c #6C6A2F",
"5  c #736E2D",
"6  c #636533",
"7  c #766A30",
"8  c #6B7132",
"9  c #747934",
"0  c #797A34",
"q  c #813F1F",
"w  c #8E1E2A",
"e  c #B51F32",
"r  c #96202C",
"t  c #99212D",
"y  c #913C27",
"u  c #AA202E",
"i  c #A4212E",
"p  c #AD2331",
"a  c #B32333",
"s  c #BC2334",
"d  c #BB233A",
"f  c #C22636",
"g  c #874B27",
"h  c #9C4D2A",
"j  c #934A2E",
"k  c #854A32",
"l  c #895832",
"z  c #955031",
"x  c #905A2E",
"c  c #A64D2A",
"v  c #AB4B2E",
"b  c #AB552F",
"n  c #B0562B",
"m  c #AB5432",
"M  c #AB5C37",
"N  c #AF5C3A",
"B  c #A55B3A",
"V  c #BA5C33",
"C  c #B55A36",
"Z  c #857E2F",
"A  c #96683F",
"S  c #AA623A",
"D  c #A6603B",
"F  c #BC6135",
"G  c #B26539",
"H  c #BB653C",
"J  c #C8572E",
"K  c #C96B2F",
"L  c #C66237",
"P  c #CA6434",
"I  c #C46539",
"U  c #CB6939",
"Y  c #D36E3D",
"T  c #DC6E3F",
"R  c #D16A32",
"E  c #CC723C",
"W  c #CB7334",
"Q  c #DF7C36",
"!  c #DA773E",
"~  c #D8773A",
"^  c #E8793A",
"/  c #C42840",
"(  c #C03447",
")  c #D63F50",
"_  c #8E5C44",
"`  c #AF6F44",
"'  c #B86C48",
"]  c #BF704C",
"[  c #B06E50",
"{  c #AE7357",
"}  c #BA7753",
"|  c #AA7B43",
" . c #BF6461",
".. c #A87F7E",
"X. c #D94E5D",
"o. c #CD6C43",
"O. c #C47344",
"+. c #CC7A4C",
"@. c #CA7344",
"#. c #D47544",
"$. c #D97B48",
"%. c #CD7C5A",
"&. c #CF7B51",
"*. c #D57D52",
"=. c #E17E47",
"-. c #CB7F6C",
";. c #788333",
":. c #838A36",
">. c #848C3A",
",. c #848333",
"<. c #8B9938",
"1. c #969B3C",
"2. c #939636",
"3. c #9C8532",
"4. c #A1A331",
"5. c #E5813F",
"6. c #848A46",
"7. c #869544",
"8. c #9BA05A",
"9. c #99A74D",
"0. c #B0B154",
"q. c #B7AC45",
"w. c #B9907B",
"e. c #9DAF6B",
"r. c #AAB666",
"t. c #D98858",
"y. c #DB9654",
"u. c #DC8749",
"i. c #E98945",
"p. c #EC8B4F",
"a. c #E68447",
"s. c #E38B56",
"d. c #EA8E56",
"f. c #E58D5C",
"g. c #EB8C5D",
"h. c #E98251",
"j. c #EA925D",
"k. c #EC9655",
"l. c #F59756",
"z. c #CC8769",
"x. c #DF8A61",
"c. c #D58466",
"v. c #CC9662",
"b. c #D89364",
"n. c #DB9C7B",
"m. c #D39278",
"M. c #E58D62",
"N. c #F18E60",
"B. c #EC9C65",
"V. c #E49667",
"C. c #F59B67",
"Z. c #E49F70",
"A. c #D2A46A",
"S. c #CFA874",
"D. c #DBA779",
"F. c #ECA56F",
"G. c #E4A66C",
"H. c #F6A568",
"J. c #FCB267",
"K. c #EDAC76",
"L. c #EAA575",
"P. c #F5A874",
"I. c #E7B279",
"U. c #FBB37A",
"Y. c #FAB676",
"T. c #D3C272",
"R. c #D7A88F",
"E. c #CFB896",
"W. c #DAB283",
"Q. c #EEAE84",
"!. c #E9A787",
"~. c #EDBD8F",
"^. c #E7BA88",
"/. c #F7BB88",
"(. c #FCBD8B",
"). c #F8B785",
"_. c #EAAF94",
"`. c #EBBD93",
"'. c #E7BE9B",
"]. c #E8B895",
"[. c #F7BB95",
"{. c #CDB9A8",
"}. c #E9BCA8",
"|. c #FDC286",
" X c #E7C293",
".X c #E9C199",
"XX c #FBC59C",
"oX c #F2C397",
"OX c #DCC6AA",
"+X c #EAC6A4",
"@X c #FCCBA6",
"#X c #FAC0AD",
"$X c #FED3AE",
"%X c #FDD0A4",
"&X c #F9C9B9",
"*X c #FDD4BC",
"=X c #FED6B3",
"-X c #D3D4CA",
";X c #FDD9C3",
":X c #FDDFD4",
">X c #F8C5C9",
",X c #FEE1D9",
"<X c #E9E8E4",
"1X c #FFF6F8",
/* pixels */
"                      R.}.n.E                     ",
"                N M N c #XC >XL C o.              ",
"            {.O.C V o.C t.L P T &XV #.u.          ",
"          z H H L.@.o._.Y L.,X,X$.N.=.h.=.        ",
"          B H &.m.M.M.f.s.:XQ.C.j./.C.&Xl.        ",
"        D O.t.Z.t.!.j.d.g.P.V.;Xs.B.H.H.! Y.      ",
"      w.v.G.I.`.[.L.K.G.F.F.K.[.K.).).@X/.J.      ",
"      } ].+X].'.`.`.t.^.~.I.`.I.~.oXQ.y.y.Y.      ",
"      D.^.'.'.A.].v.OXS.v.I..X+X+X XD. XA.9 J.    ",
"      6.W.>.1.{.E.r.2 ;.A <X<. X1.e.| r.3 0       ",
"      >., 8 3 7.-X-X;.l 6.1 <.-X$ <X8 Z 2.,.4.T.  ",
"  5 , 8.9 <.o >.0 0.2 & . X 9.6 O 6.0 * 0 0 1 1.  ",
"  Z < > 6 + * 7 r a e f a t = 4.) j e u r : : :.  ",
"  3.1 : = O = ( >Xs a s d p i p X.1Xe u v % W     ",
"      > * * r e / a e a a a t t f %.; J - @Xm XX  ",
"    S q ' { } y c.c.-.n #.R f.v ^ [.&XXX=X;X;X#X  ",
"  n ..R.n.D.~ K P J d.B =XXXT @X*Xl.@X*X@Xl.XXJ.  ",
"  m.t.F.n.+.Q.XXH.).l.H XX@XXXP.*X=X$XU.J.k $XY.  ",
"  O.z.b.t.[ z.c.P.(./.|.@X).P.(.%.o.^ (.$X_.J.Y.  ",
"      g h B g _ # % $.N.XX[.%.&Xs.C P.).Y l.      ",
"      g H t.I t.&.*.x.I P U ! #.g.n M.h.=.K       ",
"      z G O.c.x.W #.M.#.$.Y W $.j.k.k.B.i.^       ",
"      G G O.+.t.E #.E g.W a.i.^ B.i.F.l.j.i.      ",
"      l S D G b E @.$.b.f.d.a.d.p.~ 5.5.p.=.      ",
"                      } M $.y F J m c c j k       "
};
