/* XPM */
static char *result[] = {
/* columns rows colors chars-per-pixel */
"60 60 210 2 ",
"   c #3F1D1E",
".  c #4E2729",
"X  c #553134",
"o  c #5A3437",
"O  c #5A3539",
"+  c #5C3A3E",
"@  c #683E2B",
"#  c #643C3D",
"$  c #6E461B",
"%  c #734612",
"&  c #764916",
"*  c #7A4A13",
"=  c #754718",
"-  c #774B19",
";  c #7A4D1A",
":  c #684126",
">  c #774F25",
",  c #7B5020",
"<  c #684238",
"1  c #744639",
"2  c #7C4B3E",
"3  c #5F3C40",
"4  c #623D42",
"5  c #6A3F43",
"6  c #334B67",
"7  c #664245",
"8  c #6A4346",
"9  c #66464A",
"0  c #6A454A",
"q  c #6C494E",
"w  c #744947",
"e  c #7B4C41",
"r  c #724C4F",
"t  c #7B5246",
"y  c #6E4C51",
"u  c #724D52",
"i  c #745156",
"p  c #795255",
"a  c #76555B",
"s  c #7A555B",
"d  c #7C595D",
"f  c #7D5C62",
"g  c #824F14",
"h  c #834F1E",
"j  c #845014",
"k  c #8D5616",
"l  c #86521D",
"z  c #8C571C",
"x  c #965B17",
"c  c #955C1B",
"v  c #995E1C",
"b  c #9F6119",
"n  c #A2631A",
"m  c #A9671A",
"M  c #AE6A1D",
"N  c #B56E1C",
"B  c #B6701F",
"V  c #87542A",
"C  c #875636",
"Z  c #925D33",
"A  c #9D6324",
"S  c #9A663A",
"D  c #A36521",
"F  c #AD6B22",
"G  c #B26D21",
"H  c #B77121",
"J  c #B87324",
"K  c #B77429",
"L  c #AE753B",
"P  c #B97637",
"I  c #804E42",
"U  c #815144",
"Y  c #875849",
"T  c #865453",
"R  c #815B5C",
"E  c #955E56",
"W  c #8E6E4F",
"Q  c #9B6B46",
"!  c #946958",
"~  c #936A5E",
"^  c #A3795A",
"/  c #825E64",
"(  c #846066",
")  c #896266",
"_  c #866269",
"`  c #8A646A",
"'  c #936E61",
"]  c #9B6F62",
"[  c #9C696C",
"{  c #977367",
"}  c #9A7265",
"|  c #9C766A",
" . c #9E7A6D",
".. c #A67769",
"X. c #A17C6E",
"o. c #B2746D",
"O. c #A47E71",
"+. c #A0767A",
"@. c #C27558",
"#. c #CC766A",
"$. c #D8776D",
"%. c #CA7C74",
"&. c #DA7E76",
"*. c #AC8264",
"=. c #A68073",
"-. c #AC8275",
";. c #AB897E",
":. c #B18374",
">. c #B98378",
",. c #BF9978",
"<. c #C9976E",
"1. c #CA8679",
"2. c #DA887D",
"3. c #C79C78",
"4. c #D19970",
"5. c #E38177",
"6. c #E3857C",
"7. c #E48A7E",
"8. c #D3A37B",
"9. c #395582",
"0. c #338CAE",
"q. c #5E9CAC",
"w. c #9F858A",
"e. c #BA8B82",
"r. c #B2908B",
"t. c #B8A797",
"y. c #CA9989",
"u. c #D59589",
"i. c #D5938C",
"p. c #CA9C91",
"a. c #E48C83",
"s. c #E98D84",
"d. c #EB9187",
"f. c #E4948C",
"g. c #EC948B",
"h. c #F29588",
"j. c #ED9C94",
"k. c #F09E96",
"l. c #D4A489",
"z. c #D0AA90",
"x. c #DAAC9C",
"c. c #D6B595",
"v. c #DBB695",
"b. c #ECA096",
"n. c #E4AB96",
"m. c #EDA49B",
"M. c #F1A097",
"N. c #F3A49B",
"B. c #F3A99E",
"V. c #F0B79E",
"C. c #CAB9B6",
"Z. c #E7AEA2",
"A. c #EDACA1",
"S. c #F0A7A0",
"D. c #F4ACA2",
"F. c #EAB8A7",
"G. c #F4B2A6",
"H. c #F8B0A6",
"J. c #F5B5AA",
"K. c #F9B4AA",
"L. c #F5BAAD",
"P. c #F9B9AD",
"I. c #EDBCB1",
"U. c #F6BCB2",
"Y. c #FABEB2",
"T. c #DEC2A9",
"R. c #DAC3BA",
"E. c #EDC4AA",
"W. c #F3C2A9",
"Q. c #E7C9B8",
"!. c #F5C3B7",
"~. c #FBC2B6",
"^. c #F5CBB1",
"/. c #F5C4B9",
"(. c #FCC6B9",
"). c #FDCBBD",
"_. c #ECD2B5",
"`. c #EAD3BB",
"'. c #F9D7B7",
"]. c #FDE0BF",
"[. c #B5F1FA",
"{. c #DAC9C6",
"}. c #DED7D7",
"|. c #E7CBC6",
" X c #FDCEC1",
".X c #FED1C4",
"XX c #F2DCC1",
"oX c #FCD4CA",
"OX c #E9D7D3",
"+X c #E3DDDC",
"@X c #EEDEDC",
"#X c #F0D6D0",
"$X c #F6E4C6",
"%X c #FCE3C4",
"&X c #F6E5C9",
"*X c #FAE6CA",
"=X c #F6E9CC",
"-X c #FCEBCD",
";X c #E8E0DE",
":X c #FCEED1",
">X c #F3E8D9",
",X c #FCF2D5",
"<X c #F5F2D8",
"1X c #FDF6DA",
"2X c #FFF9DD",
"3X c #EFE5E2",
"4X c #F3E8E5",
"5X c #F9F4F2",
"6X c #FBF8F6",
"7X c #FEFCFB",
/* pixels */
"g g g g g g g g * * * * * * g * * * * * * * * * * * (.; * * * * * * * j j j j ; j j % % & & % % % j j j j g g g j j j j ",
"N N N N N N N m x x x x x x x x x x x x k b b x k b (.).b x x b x x x N N N N N N N * * * * * * * N N N N N N N N N N N ",
"N N N N N N N m x x x x x x x x x x x x b k b k b ^. X).^.x x x x x x N N N N N N N * * * * * * * N N N N N N N N N N N ",
"N N N N N N N m x x x x x x x x x x x x k b k b A ^.)..X X=.z x x x x N S N Z N N N * * * * * * * N N N N N N N N N N N ",
"N N N N N N N m x x x x x x x x x x x x x x b `.(.). X).).....X.x x x N m N N O.B N * * * * * * * N N N N N N N N N N N ",
"N N N N N N N m x x x x x x x x x x x x ,.x c._.)...).). Xf.O.O.X.X.X.X.S N N X.B N * * * * V * * N N N N N N N N N N N ",
"N N N N N N N m x x x x x x x x x d # $X,X,X,X:Xm.1.). X).A.O.O.O.O.O.O...} X.O.=.X.=.=.p.'. X; * N N N N N N N N N N N ",
"N N N N N N N M n n n n n n n d 1 I.d *X-X,X,X=Xm.X.e.U.O.! X.X.O.O.O.O.O.=.=.| =.=.p.).)..XS j j m m m m m m m m m m m ",
"N N N N N N N N N N N N N N D p f 4 !.# # # # A e ;.| O.X.X.X.O. .X.=.=.X.=.=.X.Y /. X.X.X Xx x x x x x x x x x x x x x ",
"N N N N N N N N N N N N N B ( a u 4 7 4 p.)./.A  .X.~ '  . . .O.=. . .=.X.=.=.=.1..XF..X.X8.x x x x x x x x x x x x x x ",
"N N N N N N N N N N N N B D _ f a i 4 4 7 9 s ~ | X. .{ F.O.| X.=.t  .=.=.=.=.O.;.-.)..X.XA x x x x x x x x x x x x x x ",
"N N N N N N N N N N N N H d f f f i f a y y M  .|  .X.' E.|  . .F.}  . . .=.X.=.X.N. XG.A x x x x x x x x x x x x x x x ",
"N N N N N N N N N N N N N r f f f f a a i G m t t p  .< %.y.z.=X-Xo...} ,.X.=.e.>.N.A x x x x x x x x x x x x x x x x x ",
"N N N N N N N N N N N N N 0 9 i f f a a G N N Y t w  .' 9.0.q.}.>X| F.l.XXU x.X.| v x x x x x x x x x x x x x x x x x x ",
"x x x k x x k x k x x k z d d a a f 9 f k x v.c 2 t t | E.[.0.<Xi.W.>Xq.C.e e ~ j j j j j j j j j j j j j j *.j j k j j ",
"% % % % % % % % % % % % % 9 9 7 3 O f f a a - % 7.d.x.| _.'.<X<X:X<X[.0.6 5 e 1 % % % % % % % % % % % % % v.*.v.v.v.* % ",
"% % % % % % % % % % % % % % 4 < f i y f 9 f I.a + 2.- ' V.-X1X1X:X:X%X^.2 1 | $ % % % % % % ^ 8.& % % % % & <.4.<.4.<.* ",
"% % % % % % % % % % % % % % % % i a 9 f 9 + y a d L.p.).g.7 =X<X,X<X%XE C = % % % % % % % z.v.4.& % ,.v.c.z.8.- * & * % ",
"% % % % % % % % % % % % % % % % % $ O a d i a d + Z.Y./ f A.C Q ; - = % % % % % % % % % > c.3.; % % & - - * % % % % % % ",
"% % % % % % % % % % % % % % % % % % $ $ y a a a i F.(.( &X,X:X<X/.=X'.3.= % % C % % % % = = * t.+X+X+X+X+X;X;X;X;XC.* % ",
"% % % % % % % % % % % % % % % % % % % % % : q a u G.).(.` `.XXXXW. X-X&X:./ f $ V % % % % % W {.}.+XR.2X].-X`.+X}.C.- % ",
"b b b b b b b b b b b b b b b b b b b b b * X 3 F.h.).(./.(.(.oX~.).e.w / f s &.@.b b b b b b I '.` =X:XQ b m D n b b b ",
"N N N N N N N N N N N N N N N N N N N N N k % f O J.K.).(.(.oX).~.g.i./ / f a p L N N N n s / 5 / / / ` N N N N N N N N ",
"N N N N N N N N N N N N N N N N N N N N N k * f O G.K.K.p.|.|.|.y.y.j.s p 0 3 4 u N N R T f f / 0 4 r +.N N N N N N N N ",
"N N N N A | N N N N N N N N N N N N B N N k * d f m.d.k.#X5X4XOX|.|.@./ / f / o s y / s s s s / 0 0 5 / T G N N N N N N ",
"N N l .. .=.X. .N N N N N N N N N N N N N k * ; f m.(.).6X6X@X@XQ.@XN.N / 0 + f s 4 s s s i i u T 0 4 / x.G N N N N N N ",
"N N C } | X.X.X.| N N N N N N N N N N N N k * * < /.(.(.D.f.@X@X7X(.Y.K N w p / / 5 _ s i p u y r f / G G N N N N N N N ",
"N 1  .| ] }  .X.=.B N N N N N N N N N L.Y.W./.m.A.G. XY.U. X X).).(.oXD.P N N f f _ 5 4 o o T p G G N N N N N N N N N N ",
"2 2  .X.X.} G F N N N N N N r 7 9 j.m.m.G.m.m.j.~.(. X~.).(. XU.P.S.K.S.i.j.K.P.U.U.(.oX/ # F G N N N N N N N N N N N N ",
"e  .X.X.X.X.N B N N N N N d a L.L.~.J.J. Xm.j.m.m.m.~.~.Y.G.k.S.U.D.H.S.g.j.j.f.U.Y.Y.U.Y.p / G N N N N N N N N N N N N ",
"N e X.X.=.! N N N N N N N i a !.~.~.~.~.U./.P.m.m.f.a.U.D.D.k.Y.(.P.P.U.Y.U.k.k.M.g.U.U.Y./ p F N N N N N N N N N N N N ",
"N 2  .X. . .H N N N N N r a f .X~.~.~.~.m.~.~.J.J./.~.Y.U.P.(. XU.Y.U.D. X XH.M.M.D.N.k.H./ r T / N N N N N N N N N N N ",
"m 2 X.O. .O.G N N N N N <   q 7 !. X%.#.D.K.Y.Y.Y.Y.~.~.Y.D.(.).U.Y. Xj.). X).oXA.K.H.H.k.` / T . N N N N N N N N N N N ",
"B 2  . .O. .X.N N N N N N @ y s 7 (.oX$.$.(.Y.Y.~.(.~.~.G.~.~.~.K.Y.(.k.oX X.X).).).P.K.(./ / u N N N N N N N N N N N N ",
"N N e  .O.O...O.N N N N N N b 8 f 8 ).s.6.Y.~.~.(.~.(.(.).Y.P.B.P.Y.(.N.$.5.p a.6.&.$.K.P./ Y N N N N N N N N N N N N N ",
"% % & e  .O.:.O. .| & % h % % = 1 f 8 X [ X !.(.(.(.(.$.$.$.K.D.Y.Y.(.(.g.N.s.s d.s.&. XY.` / * % % % % % % % % * % % * ",
"% % % % e X.O.-.d.7.2.X.7.1.X...s.+ 5 [ a.f %.s.s.B.B.B.6.r 0 D.Y.(.(.(.k.D.D.` 5 d.Y.8 T / = = % % % % % % % % % % % % ",
"% % % % % & % I =.X. . .O.X. .X.O.1 7 / X $ f ( + # B.G.T f / F.Y.(. Xk.k.D.E ` / 4 w % = = % % % % % % % % % % % % % % ",
"% % % % % % % % % 1 < & e e e U U % % $ % % % + f s f 9 f f ( 7 K.K.k.o.5 5 ( R ` / @ % % % % % % % % % % % % % % % % % ",
"% % % % % % % % % % % % % % % & % % % % % % % % O O R E.d q >.i / ` ` u J.W.W.# ^ ; % % % % % % % % % % % % % % % % % % ",
"% % % % % % % % % % % % % % % % % % % % % % % % % _.$X-X=X=X&X0 5 8 i.n.:X1X1X<X-X; % % % % % % % % % % % % % % % % % % ",
"% % % % % % % % % % % % % % % % % % % % % % % % % $X:X1X2X2X-X6Xe.A.r ^.:X1X2X2X:X- % % % % % % % % % % % % % % % % % * ",
"N N N N N N N N N N N N N N N N N N N N N b x x x c =X1X2X2X,X7X3XK c.-X:X,X2X2X1XJ * * * * * * * N N N N N N N N N N N ",
"N N N N N N N N N N N N N N N N N N N N N n x x x x $X,X1X1X<XT.K N H J -X-X-X%X%XJ * * * * * * * N N N N N N N N N N N ",
"N N N N N N N N N N N N N N N N N N N N N b x x x x b =X,X].].J N N N N H J H J G N * * * * * * * N N N N N N N N N N N ",
"N N N N N N N N N N N N N N N N N N N N N b x x x x x =X-X].].P N N N N N N N N N N * * * * * * * N N N N N N N N N N N ",
"N N N N N N N N N N N N N N N N N N N N N b x x x x x =X,X-X-Xl.H N N N N N N N N N * * * * * * * N N N N N N N N N N N ",
"N N N N N N N N N N N N N N N N N N N N N n x x x x x $X,X1X,X:XH N N N N N N N N N * * * * * * * N N N N N N N N N N N ",
"N N N N N N N N N N N N N N N N N N N N N b x x x x x E.,X1X;.R.J N N N N N N N N N * * * * * * * N N N N N N N N N N N ",
"m * * * * * * g x x x x x x m N N N N N N N N N N N N H a F. X.XH N N N N N N N N N x x x x x x x x x x x x x x x x x x ",
"m * * * * * * g x x x x x x m N N N N N N N N N N N N N f._ r.6XY N N N N N N N N N x x x x x x x x x x x x x x x x x x ",
"m * * * * * * j x x x x x x m N N N N N N N N N N N N N 7 w.f _ ) N N N N N N N N N x x x x x x x x x x x x x x x x x x ",
"m * * * * * * g x x x x x x m N N N N N N N N N N N N N N ( f ( f H N N N N N N N N x x x x x x x x x x x x x x x x x x ",
"m * * * * * * j x x x x x k m N N N N N N N N N N N N N N 1 ( ( ( N N N N N N N N N x x x x x x x x x x x x x x x x x x ",
"m * * * * * * g x x x x x x m N N N N N N N N N N N N N N N d / f P N N N E.6XP N N x x x x x x x x x x x x x x x x x x ",
"m * * * * * * j x x x x x x m m N N N N N N N N N N N N N N N ( 3XOX>XL 5X3X7X6XJ N x x x x x x x x x x x x x x x x x x ",
"% % % % % % % % % % % % % % % % % % % % % % % % % % % % % % c L..X.X.X(.7X4X4X4X; % % % % % % % * % % % % % % % % % % % ",
"% % % % % % % % % % % % % % % % % % % % % % % % % % % % % % % u.(.).).7X;X3X3X, % % % % % % % % % % % % % % % % % % % % ",
"% % % % % % % % % % % % % % % % % % % % % % % % % % % % % % % * b.6XR.|.^ ; ; % % % % % % % % % % % % % % % % % % % % % ",
"% % % % % % % % % % % % % % % % % % % % % % % % % % % % % % % % ; R.{.; = % % % % % % % % % % % % % % % % % % % % % % % "
};
