/* XPM */
static char *result[] = {
/* columns rows colors chars-per-pixel */
"60 60 198 2 ",
"   c #020101",
".  c #0A0703",
"X  c #0D0B08",
"o  c #151313",
"O  c #191817",
"+  c #1C1C1B",
"@  c #240305",
"#  c #2C0404",
"$  c #2C050A",
"%  c #3C0503",
"&  c #3A030B",
"*  c #38090B",
"=  c #31190C",
"-  c #261A13",
";  c #321312",
":  c #28241F",
">  c #372614",
",  c #1F2020",
"<  c #242424",
"1  c #2B2525",
"2  c #2D2927",
"3  c #272528",
"4  c #292728",
"5  c #2B2C2C",
"6  c #362D26",
"7  c #322E2D",
"8  c #34312C",
"9  c #272931",
"0  c #2A2B33",
"q  c #342F30",
"w  c #2F3030",
"e  c #333333",
"r  c #393435",
"t  c #363739",
"y  c #393739",
"u  c gray22",
"i  c #3B3B3C",
"p  c #43010D",
"a  c #4B070B",
"s  c #4B010D",
"d  c #55000E",
"f  c #5B010F",
"g  c #49170C",
"h  c #480A15",
"j  c #4B0C15",
"k  c #550211",
"l  c #5C0111",
"z  c #5D0D16",
"x  c #421516",
"c  c #55141E",
"v  c #61000F",
"b  c #630111",
"n  c #6B0113",
"m  c #630B10",
"M  c #670B16",
"N  c #730114",
"B  c #7B0114",
"V  c #740619",
"C  c #7C061A",
"Z  c #7F0D1E",
"A  c #651615",
"S  c #72131A",
"D  c #4B250C",
"F  c #592A0E",
"G  c #52391C",
"H  c #742C12",
"J  c #713F12",
"K  c #6D1121",
"L  c #7C1423",
"P  c #423D3C",
"I  c #60362A",
"U  c #6D4212",
"Y  c #734612",
"T  c #7A4A13",
"R  c #794919",
"E  c #494038",
"W  c #7D5424",
"Q  c #7D582C",
"!  c #6E4838",
"~  c #433F40",
"^  c #3F4041",
"/  c #464447",
"(  c #755C58",
")  c #6E6B6B",
"_  c #8F0603",
"`  c #9A0603",
"'  c #840016",
"]  c #8A0117",
"[  c #890915",
"{  c #83051A",
"}  c #8D0018",
"|  c #820B1E",
" . c #940018",
".. c #9C011A",
"X. c #B80A07",
"o. c #A8110E",
"O. c #A3011B",
"+. c #AC011C",
"@. c #A4091B",
"#. c #AE0B1C",
"$. c #B3011D",
"%. c #B9041D",
"&. c #B80B1D",
"*. c #AF1712",
"=. c #91182C",
"-. c #A50D23",
";. c #C1130F",
":. c #824F14",
">. c #8B4F16",
",. c #845014",
"<. c #8F5316",
"1. c #885419",
"2. c #8F5819",
"3. c #935417",
"4. c #965B17",
"5. c #985C17",
"6. c #945B19",
"7. c #9A5D19",
"8. c #A15D19",
"9. c #9F6119",
"0. c #A36219",
"q. c #A9671A",
"w. c #A7681F",
"e. c #AD6A1C",
"r. c #B2671B",
"t. c #B56E1C",
"y. c #815628",
"u. c #875928",
"i. c #834836",
"p. c #8C602E",
"a. c #9C6424",
"s. c #9D682D",
"d. c #8F6130",
"f. c #946531",
"g. c #9B6B34",
"h. c #B16F22",
"j. c #AB702D",
"k. c #B77122",
"l. c #B9772B",
"z. c #B9792F",
"x. c #A47136",
"c. c #AA7436",
"v. c #AC7638",
"b. c #B07735",
"n. c #B47934",
"m. c #B97A31",
"M. c #8E574A",
"N. c #9D6859",
"B. c #A86C5D",
"V. c #917D78",
"C. c #A47263",
"Z. c #AC776B",
"A. c #BC8678",
"S. c #D1B278",
"D. c #8D8584",
"F. c #B89D92",
"G. c #CA9A8C",
"H. c #C39D93",
"J. c #D29D9C",
"K. c #C6A29A",
"L. c #D4AA9B",
"P. c #CAAEA3",
"I. c #D9AEA2",
"U. c #D7B5A9",
"Y. c #DDBBAC",
"T. c #E4AEA4",
"R. c #E5B3A7",
"E. c #E5B6AB",
"W. c #E9B6AB",
"Q. c #EFBBAF",
"!. c #EDBEB1",
"~. c #E3C4B5",
"^. c #EDC3B5",
"/. c #E5C9B4",
"(. c #E8CAB7",
"). c #ECC6B9",
"_. c #EECABD",
"`. c #F2C2B5",
"'. c #F3C7B9",
"]. c #F4CBBD",
"[. c #F8CDBF",
"{. c #EDD2BD",
"}. c #DAD6D6",
"|. c #F5CEC0",
" X c #F9CEC0",
".X c #F6D2C3",
"XX c #FAD4C5",
"oX c #FCD7C8",
"OX c #F4D9CA",
"+X c #FDD9CA",
"@X c #EADAD4",
"#X c #ECE0D7",
"$X c #E8E3E4",
"%X c #EBEBEB",
"&X c #F2EFEF",
"*X c #F8F0E9",
"=X c #F3F2F2",
"-X c #FDFCFC",
/* pixels */
":.:.,.,.:.:.:.T T T T T T T T T T T T T T T T T T T T T T T T T T T T T ,.,.,.,.,.T T Y Y Y T Y Y ,.T ,.,.,.,.T ,.,.,.:.",
"t.t.t.t.t.t.t.q.4.4.4.4.4.5.4.4.9.4.4.4.4.5.5.4.4.5.4.4.5.4.4.5.4.4.5.t.t.t.t.t.t.t.T T T T T T T t.t.t.t.t.t.t.t.t.t.t.",
"t.t.t.t.t.t.t.q.4.4.4.4.4.4.4.4.4.4.4.4.<.6.4.4.4.4.4.5.4.4.4.4.4.4.4.t.t.t.t.t.t.t.T T T T T T T t.t.t.t.t.t.t.t.t.t.t.",
"t.t.t.t.t.t.t.q.4.4.4.4.4.4.4.5.4.4.4.3.b 3.4.4.4.4.4.4.5.4.4.4.4.4.4.t.t.t.t.t.t.t.T T T T T T T t.t.t.t.t.t.t.t.t.t.t.",
"t.t.t.t.t.t.t.q.4.4.4.4.4.4.4.4.4.4.4.v l f <.6.4.4.4.4.4.4.4.4.4.4.4.t.t.t.t.t.t.t.T T T T T T T t.t.t.t.t.t.t.t.t.t.t.",
"t.t.t.t.t.t.t.q.4.4.4.4.4.4.4.4.4.,.2.b l j j 6.4.4.4.4.4.4.4.4.3.4.4.t.t.t.t.t.t.t.T T T T T T T t.t.t.t.t.t.t.t.t.t.t.",
"t.t.t.t.t.t.t.q.4.4.4.4.4.4.6.4.3.n $ b k `.`.7.4.4.4.4.4.4.4.4.[ 4.5.t.t.t.t.t.t.t.T T T Y T T T t.t.t.t.t.t.t.t.t.t.t.",
"t.t.t.t.t.t.t.t.0.0.0.0.0.0.0.7.$ v v f j '.'.7.0.0.0.0.4.4.4.B 4.4.4.q.q.q.q.q.q.q.,.,.,.g T ,.,.q.q.q.q.q.e.e.q.q.q.q.",
"t.t.t.t.t.t.t.t.t.t.t.t.t.t.e.a @ b b k A.XX[.k.t.t.t.t.9.4.3.B 3.5.4.4.4.4.4.4.4.4.4.4.4.4.f 3.5.4.4.4.4.4.4.4.4.4.4.4.",
"t.t.t.t.t.t.t.t.t.t.t.t.t.t.a d b b f f =X+XXXk.t.t.t.t.9.4.n B 4.5.4.4.4.5.4.4.4.4.4.4.4.9.B 4.4.5.4.4.4.4.4.4.4.5.4.4.",
"t.t.t.t.t.t.t.t.t.t.t.t.t.8.n d b l l k K.+XoXk.t.t.t.t.5.4.n ' 3.5.4.4.4.4.4.4.4.4.4.4.4.4.' <.4.4.4.4.3.5.4.5.4.4.4.4.",
"t.t.t.t.t.t.t.t.t.t.t.t.r.N n b b l l A F.+XoXm.t.t.t.t.5.5.m ' >.4.4.4.4.4.5.4.4.4.4.4.4.4.O.m 2.4.9.Z N 4.4.4.4.4.4.4.",
"t.t.t.t.t.t.t.t.t.t.t.t.N n n b b l M |.U.oX.X-Xt.t.t.t.9.4.n ' } 3.4.4.4.2.2.2.2.4.4.4.4.4...n 4.4.`.K.C 5.4.4.5.4.4.4.",
"t.t.t.t.t.t.t.t.t.t.t.N n n b b l k T. XoXoX[.-X5 e.t.t.5.T n ' ] x 4.4.6.u 5 2 u 1.4.4.4.4. .n 4.4.[.XXC 3.4.5.4.4.5.4.",
"4.4.4.2.4.2.4.2.4.2.<.N n n v b l f k W.`.[.`.-Xw ,.4.2.,.Y n ' B Q.u.,.E e 5 < 4 : T T T -.} n :.:..XoXC d :.:.:.,.,.,.",
"Y Y Y Y Y Y Y Y Y Y N N n v v v b f l d A E.G.&Xw < Y Y Y Y v ' N Q.`.R e 5 4 < , , + , U L.[ n U Y XX_.C n Y Y Y Y Y Y ",
"Y Y Y Y Y Y Y Y T = N n n b v d v v B s d D.-Xw 4 4 + U Y Y v B n Q.`.#.7 5 4 < + : O + + ].C v Y ! .XoXL n Y Y Y Y Y Y ",
"Y Y Y Y Y Y Y Y Y N N n b b v v b ' ' f d %X&X0 4 4 4 M U Y f B n Q.`.B.e 4 7 r 1 1 + o O L.n f U %X|.E.'.V J Y Y Y Y Y ",
"Y Y Y Y Y Y Y Y b N n n b b n n ] ' v f f r 5 5 5 < 5 , * Y f n # Q.`.[.P 8 ].oXXX7 , o < [.{ k q t D.W.W.k l Y Y Y Y Y ",
"Y Y Y Y Y Y Y Y N N n b b b n } ] ' v f k k 5 5 5 5 < 5 v U Y n n `.G.[.XXV.F.XXoXoX5 o I ].V d e i $Xz f N b J Y Y Y Y ",
"Y Y Y Y Y Y Y b N n n b f N N } } ] v v l f r 8 5 5 5 5 < l Y l n `.].'.XXe .X+X+XoXoX/ E.!.n s t i k N N N b f Y Y Y Y ",
"9.9.9.9.9.9.4.B N n n b & N }  .} ] v v f d S.r w w 5 5 2 k f * n `.[.i.[.~.+X]..X+XoXXXXXc v o y ^ l N N d b k 4.9.9.9.",
"t.t.h.t.t.t.g N n n b b N ....} } n v ' n f f q e w 5 5 4 < k D v E.[.Y.oXL.oX{.N.oX+XoXXX Xl 4 i i V N N d n f p r.t.t.",
"t.t.t.t.t.t.N N n n b & N ......} n ] ' ' f d d e w w w 5 4 k d d l '.~.oXoX~.@X-X+XoXoXXX!.h y / k N N B d n f s t.t.t.",
"t.t.t.t.t.t.N n n b f B O.O... .B n } ' ' B k d e e w 0 5 4 : s p f !.XXXX+X~./.*XY.~.+X{.p $ i ~ k N B B k N l s r.t.t.",
"t.t.t.t.t.B N n n b & } O.O.....N  .} ] ' ' l f 4 r e w w 5 , d s s N I.L.+X.XP./.C.oX#X(.& 5 ~ k f B B B l n b d q.t.t.",
"t.t.t.t.r.N n n n b ' +.+.O..... . .} } ] ' f f d e e w w 5 o * k & @ } .X+X+X/.~.+X+X+XA.x i ~ d f B B ' b N b s $ r.t.",
"t.t.t.t.f N n n b f +.+.+.O.O.....} } } ] ' v l k r r e 0 5 3 , s & p | .X+XH.+X+X+X+XoX_..X~ k d f ' ' ' B B b d p t.t.",
"t.t.t.t.N N n v v ] $.+.$.O.O.O... . .} ] ' b f f d t w w 5 5 , p p p `..X+X@ .X+X+X+X+X.X^.- f f f ' ' ' [ N b d p r.t.",
"t.t.t.t.V n n b v $.$.$.+.O.O.O..... .} } ' b f k d r e w < 5 5 , c p ].A.oX@ (.+X+X_.XX`.7 l b b n ' ' [ r.M n k s t.t.",
"t.t.t.F n n n v [ %.$.$.+.+.O.O.......} ] ] v l f f d r e 5 5 4 < -Xh ^.^.^.; @ OX_.* @XY.b ' ' b ] ] ] t.t.t.n f a r.t.",
"t.t.t.B n n b b t.t.$.$.$.+.O.O.O..... . .} b b f f k w e 5 5 4 X -Xh ( R.Y.).# &X# % Y.A.{ ] ' ] ] } ] t.t.t.n l 8.t.t.",
"t.t.t.N n b b D t.t.g %.$.+.+.O.@..... . .n v v ' B f o w w 5 < < %X) C H.Z.Z._ J.$ M.I.M ] ] ] } } } F t.t.t.N f t.t.t.",
"t.t.t.N n b b r.t.t.t.%.$.+.+.+...@... . .v v n ' B f 2 e w 5 5 4 + }.Z W.{  X` ` # ].S ] ] } } } } } t.t.t.t.N v t.t.t.",
"t.t.e.n n b l t.t.t.t.%.$.$.+.@.A ...... .f v ' ' B d e e w 5 5 3 w =XZ ..z [.*.o.p `.n } } } }  . . .t.t.t.t.B b t.t.t.",
"Y T k n b b Y Y Y Y Y %.%.+.T Y Y Y .... .N  .' ' ' p e w 5 5 4 3 %X-X=.K }.)..X}.X.L.n } }  . . . . .Y T Y Y B m Y Y Y ",
"Y Y n n b b Y Y Y Y Y %.$.Y Y Y Y Y O...N } } } ] v t e e w 5 4 4 , =X-X-X=X1 E.R.;.W.n  . . . ... ...Y Y Y Y B Y Y Y Y ",
"Y Y n b b Y Y Y Y Y d $.Y Y Y Y Y Y O....... .} ] b t t w 5 5 5 4 , %X=X%X5 v W.'.I.N N  ... .........Y Y Y Y B Y Y Y Y ",
"Y Y n m l Y Y Y Y Y %.T Y Y Y Y Y Y O.' ....} } ' y u e e 5 5 3 < < 5 2 4 n f n W.W.M .. . . . .......Y Y Y Y Y Y Y Y Y ",
"Y Y v b l Y Y Y Y Y Y Y Y Y Y Y Y O.O.O... . . .n u r w w 5 5 3 X 0 5 4 n n N n n N v  . .Y T T ..O...Y Y Y Y Y Y Y Y Y ",
"Y Y b b Y Y Y Y Y Y Y Y Y Y Y Y Y +.+.O..... . .m u t e w 5 < < < 4 * n } n  ...B N N ..U Y Y Y Y @.D Y Y Y Y Y Y Y Y Y ",
"Y Y b v Y Y Y T Y Y Y Y Y Y Y Y +.+.+.m Y Y  .] u t w w w w , w , < n  ...N ........N O.Y Y Y Y Y @.Y Y Y Y Y Y Y Y Y Y ",
"t.t.v m r.t.t.t.h.t.t.t.t.t.t.<.@.#.t.t.t.5...n < e w w < 5 < 5 0 + }  .} ........O. ...T T T T T o.t.t.t.t.t.t.t.t.t.t.",
"t.t.f t.t.t.t.t.t.t.t.t.t.t.r.&.H t.t.t.t.@...6 w e w w w < + 5 5 e r V ....O.O.O.O.O.T T T T T T ,.t.t.t.t.t.t.t.t.t.t.",
"t.t.f t.t.t.t.t.t.t.t.t.t.t.&.t.t.t.t.t.t...M w 5 O 5 5 5 < 5 5 5 8 e i C O...O.@.+.O.T T T T T T t.t.t.t.t.t.t.t.t.t.t.",
"t.t.f t.t.t.t.t.t.t.t.t.t.t.t.t.t.t.t.t.t.9.r w + 5 5 5 < , < 5 5 w e t i O.@.t.q.O.+.T T T T T T t.t.t.t.t.t.t.t.t.t.t.",
"t.t.m t.t.t.t.t.t.t.t.t.t.t.t.t.t.t.t.t.t.: w < 5 5 , < , < < 5 , w w < * @.t.t.t.+.Y T T T T T T t.t.t.t.t.t.t.t.t.t.t.",
"t.h.q.t.t.t.t.t.t.t.t.t.t.t.t.t.t.t.t.t.e.r w 5 5 5 < 5 < 2 < : < w w u f t.t.t.t.#.T T T T T T T t.t.t.t.t.t.t.t.t.t.t.",
"t.t.t.t.t.t.t.t.t.t.t.t.t.t.t.t.t.t.t.e.> e , w < < 2 2 : - : : , 5 w t e.t.t.t.t.t.T T T T T T T t.t.t.t.t.t.t.t.t.t.t.",
"q.T T T T T T ,.4.4.4.4.4.4.q.t.t.t.e.5 i t w 0 8 - t.t.t.t.t.t.X 5 0 t h.t.t.t.t.t.4.4.4.4.4.4.4.4.4.4.9.2.4.4.4.4.4.4.",
"q.T T Y T T T ,.4.4.2.2.9.2.w.l.m.n.o 0 i u w e h.t.t.t.t.t.t.t.8 5 0 t h.t.t.t.t.t.4.4.4.4.4.4.4.4.4.4.4.4.4.4.4.4.4.4.",
"q.T T T T T T ,.4.2.9.9.9.g.x.c.x.g.  9 i u e x.v.m.z.t.t.t.t.k.e.5 0 O t.t.t.t.t.t.4.4.4.4.4.4.4.4.4.4.4.4.4.4.4.4.4.4.",
"q.T T T T T T ,.4.4.4.9.s.g.g.g.p.W + < + G p.g.c.v.m.l.t.z.m.n.6 0 9   g.n.n.z.k.k.9.4.4.4.4.4.4.4.4.4.4.4.4.4.4.4.4.4.",
"q.T T T T T T ,.4.4.4.4.a.g.x.x.g.p.u.W y.p.f.g.c.n.m.z.n.b.c.g.. 9       p.x.c.n.z.9.2.4.4.4.4.4.4.4.4.4.4.2.9.4.4.4.4.",
"0.T T T T T T ,.4.4.2.2.9.a.j.n.b.c.c.c.c.c.n.n.z.l.k.m.n.c.g.f.y.> . . . . d.x.c.n.a.4.4.4.4.4.9.2.4.4.4.4.4.4.4.4.4.4.",
"q.T T T T T T ,.4.2.9.9.6.2.0.t.t.t.k.k.k.t.t.t.t.t.t.l.n.b.c.g.f.f.p.p.f.g.x.c.b.n.9.4.2.9.2.9.4.4.4.4.4.4.4.4.4.4.4.4.",
"Y Y Y Y Y Y Y Y Y Y Y Y Y Y Y Y Y Y Y Y Y Y Y Y Y Y Y Y Y W W Q Q Q Q Q Q Q Q W R Y Y Y Y Y Y Y Y Y Y Y Y Y Y Y Y Y Y Y ",
"Y Y Y Y Y Y Y Y Y Y Y Y Y Y Y Y Y Y Y Y Y Y Y Y Y Y Y Y Y Y Y Y Y Y Y Y Y Y Y Y Y Y Y Y Y Y Y Y Y Y Y Y Y Y Y Y Y Y Y Y ",
"Y Y Y Y Y Y Y Y Y Y Y Y Y Y Y Y Y Y Y Y Y Y Y Y Y Y Y Y Y Y Y Y Y Y Y Y Y Y Y Y Y Y Y Y Y Y Y Y Y Y Y Y Y Y Y Y Y Y Y Y ",
"Y Y Y Y Y Y Y Y Y Y Y Y Y Y Y Y Y Y Y Y Y Y Y Y Y Y Y Y Y Y Y Y Y Y Y Y Y Y Y Y Y Y Y Y Y Y Y Y Y Y Y Y Y Y Y Y Y Y Y Y "
};
