/* XPM */
static char *result[] = {
/* columns rows colors chars-per-pixel */
"60 60 204 2 ",
"   c #020204",
".  c #0B0304",
"X  c #05060B",
"o  c #0E060A",
"O  c #07090C",
"+  c #0A0B0D",
"@  c #140102",
"#  c #1C0203",
"$  c #14070B",
"%  c #120A0C",
"&  c #1B0A0C",
"*  c #190609",
"=  c #060B11",
"-  c #0C0D12",
";  c #040710",
":  c #140E11",
">  c #1D0F11",
",  c #0D1015",
"<  c #0D1119",
"1  c #121215",
"2  c #131519",
"3  c #1C161A",
"4  c #16181C",
"5  c #1A1A1D",
"6  c #1F1215",
"7  c #2D0203",
"8  c #290A0D",
"9  c #25080A",
"0  c #3A0608",
"q  c #230D11",
"w  c #241215",
"e  c #2C1315",
"r  c #221618",
"t  c #241B1E",
"y  c #2D1B1E",
"u  c #2B171B",
"i  c #341315",
"p  c #37181A",
"a  c #161920",
"s  c #1C1E21",
"d  c #231E22",
"f  c #2C1E22",
"g  c #311E21",
"h  c #1E2024",
"j  c #1E2229",
"k  c #222225",
"l  c #2B2224",
"z  c #242529",
"x  c #2B2729",
"c  c #26282C",
"v  c #2A2A2D",
"b  c #342325",
"n  c #392426",
"m  c #342629",
"M  c #3A2729",
"N  c #322A2D",
"B  c #3C2B2D",
"V  c #252A31",
"C  c #2C2D32",
"Z  c #332E32",
"A  c #3C2E31",
"S  c #2D3034",
"D  c #2D3339",
"F  c #323335",
"G  c #3B3234",
"H  c #34363A",
"J  c #3B363B",
"K  c #36383D",
"L  c #3A3B3D",
"P  c #440103",
"I  c #4C0304",
"U  c #440B0E",
"Y  c #5C0304",
"T  c #580709",
"R  c #5E0F11",
"E  c #4C1B1D",
"W  c #42181B",
"Q  c #57171A",
"!  c #660305",
"~  c #6B0B0D",
"^  c #680709",
"/  c #740305",
"(  c #7A0204",
")  c #740508",
"_  c #7E0609",
"`  c #740A0C",
"'  c #7D0A0D",
"]  c #6A0D11",
"[  c #750E11",
"{  c #7A0D10",
"}  c #661315",
"|  c #6B171A",
" . c #651A1D",
".. c #6E1C1D",
"X. c #681518",
"o. c #741214",
"O. c #7D1316",
"+. c #7A1518",
"@. c #78191B",
"#. c #491F21",
"$. c #551E20",
"%. c #741F22",
"&. c #442225",
"*. c #422729",
"=. c #4A2528",
"-. c #5E2325",
";. c #512325",
":. c #472F32",
">. c #592E32",
",. c #413235",
"<. c #4C3235",
"1. c #493638",
"2. c #443A3D",
"3. c #4D3A3C",
"4. c #593235",
"5. c #523739",
"6. c #523031",
"7. c #652B2D",
"8. c #692123",
"9. c #752628",
"0. c #682F31",
"q. c #693233",
"w. c #333741",
"e. c #363A41",
"r. c #3B3E42",
"t. c #433E42",
"y. c #4D3E41",
"u. c #543E40",
"i. c #593F41",
"p. c #603C42",
"a. c #3E4045",
"s. c #3E424A",
"d. c #424245",
"f. c #4D4245",
"g. c #43464B",
"h. c #4C4348",
"j. c #46494D",
"k. c #494B4E",
"l. c #564446",
"z. c #5C4244",
"x. c #5A474B",
"c. c #534A4C",
"v. c #5A494C",
"b. c #534549",
"n. c #454B51",
"m. c #4C4E52",
"M. c #534E52",
"N. c #5A4A51",
"B. c #4E5055",
"V. c #4E525A",
"C. c #525255",
"Z. c #595153",
"A. c #52555B",
"S. c #56595E",
"D. c #5A5B5D",
"F. c #58555A",
"G. c #624447",
"H. c #64575C",
"J. c #66595F",
"K. c #695759",
"L. c #724447",
"P. c #565B61",
"I. c #5B5E63",
"U. c #625E61",
"Y. c #5E6166",
"T. c #5E6369",
"R. c #616265",
"E. c #63656A",
"W. c #66686D",
"Q. c #6A6A6C",
"!. c #786062",
"~. c #666A71",
"^. c #6A6D72",
"/. c #6D7075",
"(. c #6E7379",
"). c #727375",
"_. c #74767A",
"`. c #7A7B7E",
"'. c #76787C",
"]. c #840305",
"[. c #8D0305",
"{. c #830608",
"}. c #8A0608",
"|. c #820A0C",
" X c #8A090C",
".X c #870F12",
"XX c #851214",
"oX c #8A1013",
"OX c #861619",
"+X c #900507",
"@X c #757A80",
"#X c #7B7E82",
"$X c #7E8084",
"%X c #7D828A",
"&X c #808386",
"*X c #83868A",
"=X c #868A8F",
"-X c #8C9095",
";X c #909397",
":X c #989C9F",
">X c #848990",
",X c #9DA0A5",
"<X c #A3A6AB",
"1X c None",
/* pixels */
"R.E.Q.R.U.Q.D.Q.).R.R.R.).Q.R.R.).).$X`.'.:X&X'.'.#X/.#X$X).Q.R.U.'.=X;X`.W.^.W.Q._.#X*X;X<X,X%X-X-X-X#X~.%X>X#X@X@X%X@X",
"L L d.k.m.r.L H L d.d.d.d.d.a.d.L j.W.B.a./.'./.'.R.W.E.R.R.OXl.j.r.g.r.L g.g.F.S.C.S.A.V.).E.r.(.(.~.^.V.I.~.(.n.V.T.@X",
"F L d.k.M.d.d.g.d.L k.d.d.C.k.C.j.C./.S S D.R.E.Q.D.m.a.8.L k.D.j.k.H F k.U.n.e.j.j.C.k.P.Y.s.z W.W.A.(.~.A.V.V.s.w.w.s.",
"L L d.j.j.d.d.g.d.d.k.C.j.d.k.k.D.B.B.4 h m.B.j.K a.S z v F L k.C.A.d.j.Q.^.D.m.j.e.H g.A.E.K 3 r.P.P.T.T.~.T.n.n.s.w.w.",
"r.L L L L j.d.L L F L k.d.d.k.C.j.j.d.1 s B.m.k.d.d.F v F L d.d.j.d.j.S.R.S.C.n.a.H f.k.j.j.H Q r.s.n.V.T.s.s.V.n.P.n.s.",
"L F L r.d.d.d.L F L d.d.d.d.d.d.j.k.d.5 4 S k.D.S.a.L k.D.C.m.j.r.L d.S.C.S.M.j.g.a.s.C.P.m.r.K e.s.V.n.V.s.D V.V.s.w.s.",
"d.d.L G F F F L L d.L L F F L L r.a.F h h a.d.j.a.F C.Q.Q.C.C.C.d.F L g.m.A.n.C.Y.V.a.s.S.V.a.K K F s.a.D s.D D w.s.w.D ",
"F F v k z z v t.L F F L L F F F c k v L c 4 1 +     + 5 1 1 1 1 X   - - 4 z K K c V L S c c Q F C ` z j V w.V j j w.w.j ",
"k 5 1 h v v x G k.v 1 1 5 5 t k s v k.`./.r.k + , +   P .     1 5 -     + 5 H K F w.t.r.w.r.n.n.R d a a w.w.j j j j V w.",
"d.2.L d.d.k.R.Q.`.).C.L F F L d.d.m.K.E.).D.C.j.d.v h 5 1 , 5 S g.H s - w.C.B.H.P.I.P.V.P.U.I.V.n.n.B.n.V.P.V.n.s.w.s.V.",
"U.D.D.k.C.D.Z.C.d.R.Q.R.Q.Q.).).D.D.L.U.Q.R.Y.R.I.k.d.d.x 1 v Y.`.R.E.d.g.S.t.8.c.I.P.V.U.^.^.~.W.~.~.Y.P.P.I.P.n.V.P.V.",
"C.C.2.F L C.k.v 1 v F 2.d.d.D.D.D.Z.OXv.R.R.D.M.d.m.d.C.k.L m./.$X_.F.H C K 4.m.r.e.w.w.r.P.T.I.P.I.Y.n.r.s.V.V.T.~.@XP.",
"k.C.k k v k v + 5 k k F d.F L C.d.L ..G k.D.C.d.g.>.d.d.d.F F U.A.H k - v F r.A.S.T.A.V.P.I.I.F.M.V.N.n.g.V.I.P.P.@X@XV.",
"2.L + + 1 + O 1 k 5 t v d.v 5 L k.F z k F L a.F F .Xu.d.7.Z k d z H K - c K r.n.I.U.I.I.T.T.I.OX.XN.oXG.P.E.~.I.P.V.V.n.",
"d.F v v 5 5 1 5 5 1 5 t F F 5 5 k k k z k v d.L L 7.c.r.r.d.F ..b.R.E.F p J g.A.V.P.m.w.r.V.P.~.I..X XU.U.A.A.P.P.r.w.r.",
"d.d.L d.D.C.d.1 5 k k k F F L F y k v F v v F z v 7.l.j.L v S k C r.S.r.c Z n.I.A.I.A.7.y.n.n.P.p.OXU.I.n.r.r.n.w.w.w.w.",
"F L F L ).Q.S k 5 v F S H z F F r.H k 5 1 1 k k 5 #...2.L v z 1 D Z r.j.A S m.~.^.W./.@XT.s.r.V D n.B.s.w.n.P.A.n.s.D D ",
"d.d.L H R.Q.F F F v G F k k t 5 v F S v k 5 5 5 5 i i d S v 5 d t.A e.t.' m D I.^.W.U.P.t.n.e.w.S e.V.n.V.P.P.P.T.s.s.n.",
"d.L F v F d.k 5 F x F F S k 1 5 k N H v 5 5 + + + 5 y k k 4 I {.A  .G [ 8 4 Z E.W.j.r.r.n.t.w.w.s.a.n.n.V.V.V.g.s.n.A.V.",
"L v v k F R.v 5 v x v F v k k v x k k 5 5 + + O + 1 9 : 1 + ! y F K C d.C U {.y.r.D D r.n.t.n.t.s.e.s.s.n.P.P.V.V.s.a.n.",
"L c k h v L k 5 z s 1 k 5 5 s k 5 + 1 5 5 1 + O O % % + 8 % : R f z C M._.p 3 s.g.o.A e.G $.:.t.a.r.w.w.e.g.s.V.s.V.S.~.",
"L L v k c k 5 5 5 k k k 1 , 1 + 0 % 1 1 5 1 + 5 1 ) g t i b x s 5 z C m.&XF y k #.H #.{ }. XO.t.H D C D D V D w.s.T.V.P.",
"L F L F F v + s k k h h k z v k ` w + + 1 5 5 k v l 3 R m X..Xi.k - 1 e.r.1 1 - < s V e..X+.A V C s d D D S C C a.r.g.a.",
"F L d.L k.a.  O 1 + + 5 v F z k e k 5 1 + 1 5 k #.} _ }.,.k r.O.,.H C C K : + X 2 d Z C ) u s V s j .X .H D D V w.XX XD.",
"v S L F F S O         + 5 5 1 : 5 z h 5 5 + 2 l |.~ W ' y s L g.d.k.k.F d.5 o 3 W _ }.].].].f j V r..XN.w.K s.n.s.n.B.T.",
"S S S v h 4 O       X X + X + U t s 4 5 2 + $ / ].Y ( 9   2 G j.k.L F F 6.t ` ].[.[.}.6 ) Q H e.n.V..Xb.g.n.C.j.P.~.P.V.",
"L c 5 4 O   O O           X X % > X   + +   / [.I 7 #     + k L J H 2.Z N ( / ].].}.) > _ ].B r.r.n.XXv.m.e.K r.s.W.I.Y.",
"S h 4 + O s j.D.g.            o ( @   . . 0 ].[.[.@ #       + 5 ` y S o.[.].* h 2 ) w s { ,.r.g.s.V.h.H H n.P.V.s.A.m.I.",
"k 2 , 2 v E.$X*X/.v       %   / ( @   / ].[.].}.o.,.*.e / 7 .   I * 1 / }.@   1 < - < d [ b s V V j a s r.^./.I.T.P.g.a.",
"& 1 z v S A.I.R.j.G S v G ' y {.g % $ ( [.+X5.OXv.C.q.J d 1 0 @ ( ! Y * w %     s d : s Q d < - < 4 a z V F e.H s.K C s ",
"h 4 s k S H H r.L } ,.t.+.3.Z ' *.|.[.[.[.}.%.z.Z.c.G.v.,.x l ].[.! @ / ( * .   X i 4 2 a c c q 4 V g.n.w.r.r.D h < = X ",
"z 1 k S F F S d.d.L d.i.j.L ` i _ [.[.[.+XG.|.<.Z.@.0.M.8.1.| }.+XQ ].*     / 0 . X 1 4 2 s k d v e.m.m.j.d.w.V a a = = ",
"5 4 k c d V Z g.r.d.k.g.5 z Z.g...}.+X+X+X+X[.[.9.f.C.F.6. X+X X}.}. X,.k i % O     + 2 1 , h F F r.C.B.m.d.e.K S < < V ",
"k z v k s 4 d H H K a.Q & c.OXi.|.[.+X+X+X[.+X+X}.6.2.f.@. X XG.7. X}.q.v.7.B F k       1 h S a.g.g.j.m.n.r.V j s < j D ",
"C k v j 5 s d H H G k + F XXG..X[.+X+X|.[.}.+X[.}.}.|.}.|.v.k.c..X+Xl.M.D.D.G.%.9.g 4 v h 2 5 S s.g.0.t.H C c v e.H S V ",
"z j s s s k ] 2.L s 7 % Z.XX[.[.+X+X+X[.[.$.|.*.<.y.d.d.d.f.f.O.}.}.i.l.Z.k.k.9.K.d.d.`.Q.R.a.L K r.r.z j k n.(.E.r.r.K ",
"s 4 - - 4 4 d F k . P i oX[.+X[.+X[.[.[.[.O.5.t.d.L d.2.3.|.+X+X}.oXv.k.k.d.d.d.7.G k k.S.R.R.*X$X).^.P.B.B.'.%XP.r.a.n.",
"- = + 4 s s } g t ( [.[.[.[.[.+X+X[.[.[. Xu.d.d.r.2.G G ' }. X}.=.o.,.d.d.d.k.d.d.F + g.k.A.j.A.E.S.C.).T.g.g.P.r.s.n.r.",
"  X = 1 d d e ( [.[.[.[.[.+X[.[.+X[.].[.X.{.M m x |.[.].b v F L L | B S F c.m.2.2.L : v g.Y.C.F r.F c H s.s.e.v S s.F v ",
"7 .     ( ` ].[.[.[.[.[.[.[.+X[.[.+Xm _ g l x _ +X[.].n Z v v N F | N 5 d L F v F L 1   5 F k z z z c C v 1 a C e.r.D H ",
"        ( & 1 ) [.].[.[.[.[.[.[.[.[.*.|.#.` ~ }.}.}.} n ' b k l S } t 1 1 5 : 5 S d.k   , v F d.F F e.K z a s z H e.H D ",
"v       / @     / [.[.[.[.[.[.[.[.+X+X[.+X[.;.Q l _ *.L k k 1 5 t R r 5 + + + 5 x d.H   O k S 5 2 s 1 = - k V k H e.V H ",
"r.k     ( @     ( ( [.[.[.[.[.[.+X[.}.}.{.A H N k |.|.n v S x S x k k k t 1 1 k S L L - 1 s s s 4 c -   - V V s V w.V V ",
"j.K -   / @   . ( [.[.[.[.[.[.[.[.|.B |.M F H [ G |.1.F l F d.d.d.L F v h 5 k k h x F 2 c d.k.v F W.n.2 2 c V 4 4 a a s ",
"d.L 4 X   +   I }.[.] |.[._ }.}. .' B |.*.H F F F ' g v E l N F L N k k 4 5 5 5 1 z v 1 + a.B.F V j.P.v a j s < s s s V ",
"4 4 s v v j.L e ' [.y N ].M _ G F :.F |.B x 5 k 5 {.n F F v $.G F F v k t 5 4 + + 5 d 2   v S v C S C s 2 a s a a s a a ",
"L S L d.r.F.m.e N _ y E }.M x h 5 v H ' y 8 + O O ' b k k v v L 5.d.v l #.G H v z s z z   5 S v C z X X = < s a = < a a ",
"d.H H F N k v l x _ g v |.y &.v k 5 k ' 0 ^ w 1 3 _ q + 1 t x L L v h k F  X3.H F k h z 1 , z v s X     = 2 a 2 < a a < ",
"F C L S { B H d.v ' b B |.B v F v k k e 5 ` g 5 1 ( & + 5 k S L F 5 h v F ' B F S s h s 4   - -         = 4 < a < a V V ",
"d.H K G C S L j.s / b F |.3.L v F F k 5 1 ~ y 1 % _ * 1 k k v F v h v v F { b h s 5 4 5 2             X = < < < < < a V ",
"d.H F C v v F L 5 t v v ' M F v v v k 5 + ^ > 1   ( w 1 d z z v v F F F v k 1 + 5 k c j k 4 X     <   = < s a 2 s a a a ",
"K F F C S x S H k ` :.v _ g k k _ w + 1 1 + O O + ( w 5 k s k k v v F v h 1 5 h k S K C c z s , X < X X 2 j a 4 a a a < ",
"5 z 5 5 5 k k S S v Z S _ w k 5 ~ > + O + 1 1 + 1 ( w k v z h s k v v k 5 v v S v c C c j j c c 2 a a   X < < < a < = ; ",
"2 1 - 5 2 5 x S z S S F _ u 1 + T > 1 5 t 5 k k 5 |.n v v v S z c v c s k v v k h h z j j c S V k s S s ;         ; ; = ",
"5 1 s v S v v v k F H L |.n 1 1 T % + 1 5 5 z v v |.B v F S v v v c h k v c z k z c h j c c V D C < D V.w.V a < ; = a j ",
"1 - 1 s k z z k 1 s v S _ y 1 + I % O + + 1 1 5 v |.B v v v v v k s s 4 s 5 k k h h h h j j V V V < a g.s.n.s.s.j = < = ",
"5 1 X   - 1 2 , + 1 5 s _ w + X 7 . O   O O O + 1 ` b k k k k s 5 s 5 + 1 4 h 4 a 4 4 < 4 4 h h s 2 = V D D s.s.e.s V j ",
"5 5 - X           + - 2 ( > + + q + O O   O   O + + : 5 s 5 1 + , 1 + + , 1 , , , , < - < 2 4 4 a < X < a < V V V V V j ",
"h 1 1 - + X   O   O 1 + ( * + - 0 % O     O + + O + O + - - + O O O + , O X O = < = = , = < < < = ;   ; ; ; = a a < < = ",
"1X1X1X1X1X1X1X1X1X1X1XO ].8 + - + + O       + + O O O   O + O X O O O = O X X O O + , ; ; = = < ; X   X ; = = = = = < = "
};
